<?xml version="1.0" encoding="utf-8"?>
<!-- Generator: Adobe Illustrator 16.0.0, SVG Export Plug-In . SVG Version: 6.00 Build 0)  -->
<!DOCTYPE svg PUBLIC "-//W3C//DTD SVG 1.1//EN" "http://www.w3.org/Graphics/SVG/1.1/DTD/svg11.dtd">
<svg version="1.1" id="Capa_1" xmlns="http://www.w3.org/2000/svg" xmlns:xlink="http://www.w3.org/1999/xlink" x="0px" y="0px"
	 width="132.64px" height="91px" viewBox="89.44 15.865 132.64 91" enable-background="new 89.44 15.865 132.64 91"
	 xml:space="preserve">
<g>
	<path fill="#6DBA47" d="M175.476,36.623c-0.125-0.385-0.456-0.659-0.855-0.723l-11.93-1.695l-5.369-10.792
		c-0.181-0.361-0.549-0.588-0.95-0.588l0,0c-0.4,0-0.769,0.228-0.95,0.597l-5.298,10.824l-11.931,1.774
		c-0.4,0.063-0.73,0.337-0.855,0.722s-0.016,0.809,0.275,1.083l8.658,8.391l-2.002,11.883c-0.07,0.4,0.094,0.801,0.424,1.036
		c0.18,0.134,0.4,0.204,0.62,0.204c0.173,0,0.338-0.04,0.495-0.125l10.651-5.644l10.683,5.581c0.156,0.078,0.322,0.118,0.486,0.118
		l0,0c0.582,0,1.06-0.479,1.06-1.06c0-0.086-0.008-0.165-0.031-0.244l-2.064-11.813l8.603-8.438
		C175.5,37.431,175.602,37.007,175.476,36.623z"/>
</g>
<g>
	<path fill="#6DBA47" d="M114.448,69.453h-3.438v-1.241h8.368v1.241h-3.455v10.061h-1.476V69.453z"/>
	<path fill="#6DBA47" d="M120.468,67.609h1.476v5.064h0.034c0.235-0.419,0.604-0.788,1.057-1.04
		c0.436-0.251,0.956-0.418,1.509-0.418c1.09,0,2.834,0.67,2.834,3.471v4.829h-1.476v-4.662c0-1.308-0.486-2.414-1.878-2.414
		c-0.956,0-1.71,0.671-1.979,1.476c-0.083,0.201-0.101,0.419-0.101,0.704v4.896h-1.476V67.609z"/>
	<path fill="#6DBA47" d="M131.418,69.118c0.017,0.503-0.352,0.905-0.939,0.905c-0.52,0-0.889-0.402-0.889-0.905
		c0-0.52,0.386-0.922,0.922-0.922C131.066,68.196,131.418,68.598,131.418,69.118z M129.774,79.514v-8.116h1.476v8.116H129.774z"/>
	<path fill="#6DBA47" d="M133.497,78.006c0.436,0.284,1.208,0.587,1.945,0.587c1.073,0,1.576-0.537,1.576-1.208
		c0-0.704-0.419-1.09-1.509-1.492c-1.459-0.52-2.146-1.324-2.146-2.297c0-1.309,1.057-2.381,2.801-2.381
		c0.821,0,1.542,0.235,1.996,0.502l-0.369,1.073c-0.319-0.201-0.906-0.469-1.66-0.469c-0.872,0-1.358,0.503-1.358,1.106
		c0,0.671,0.486,0.973,1.543,1.375c1.409,0.536,2.129,1.241,2.129,2.448c0,1.425-1.106,2.432-3.035,2.432
		c-0.889,0-1.71-0.219-2.281-0.554L133.497,78.006z"/>
	<path fill="#6DBA47" d="M145.403,68.212v11.302h-1.459V68.212H145.403z"/>
	<path fill="#6DBA47" d="M149.947,69.068v2.331h2.113v1.124h-2.113v4.376c0,1.006,0.285,1.576,1.106,1.576
		c0.386,0,0.671-0.05,0.855-0.101l0.067,1.107c-0.285,0.117-0.738,0.201-1.308,0.201c-0.688,0-1.241-0.219-1.593-0.621
		c-0.419-0.436-0.57-1.157-0.57-2.112v-4.427h-1.258v-1.124h1.258v-1.945L149.947,69.068z"/>
	<path fill="#6DBA47" d="M154.44,75.724c0.034,1.996,1.308,2.817,2.784,2.817c1.057,0,1.694-0.185,2.247-0.419l0.251,1.057
		c-0.52,0.234-1.409,0.503-2.7,0.503c-2.499,0-3.991-1.644-3.991-4.092s1.442-4.376,3.807-4.376c2.649,0,3.354,2.331,3.354,3.823
		c0,0.302-0.034,0.537-0.05,0.688H154.44z M158.767,74.669c0.017-0.939-0.386-2.398-2.046-2.398c-1.493,0-2.146,1.375-2.264,2.398
		H158.767z"/>
	<path fill="#6DBA47" d="M162.02,73.595c0-0.839-0.017-1.526-0.067-2.197h1.291l0.067,1.308h0.05
		c0.453-0.771,1.207-1.492,2.549-1.492c1.107,0,1.945,0.67,2.297,1.626h0.034c0.251-0.453,0.57-0.805,0.905-1.057
		c0.486-0.369,1.023-0.57,1.794-0.57c1.073,0,2.667,0.704,2.667,3.521v4.779h-1.442V74.92c0-1.56-0.57-2.498-1.761-2.498
		c-0.838,0-1.493,0.62-1.744,1.341c-0.067,0.201-0.117,0.47-0.117,0.738v5.014h-1.442v-4.863c0-1.291-0.57-2.229-1.693-2.229
		c-0.922,0-1.593,0.737-1.828,1.476c-0.084,0.218-0.117,0.469-0.117,0.721v4.896h-1.442V73.595z"/>
	<path fill="#6DBA47" d="M181.203,69.118c0.017,0.503-0.352,0.905-0.939,0.905c-0.52,0-0.889-0.402-0.889-0.905
		c0-0.52,0.386-0.922,0.922-0.922C180.851,68.196,181.203,68.598,181.203,69.118z M179.56,79.514v-8.116h1.476v8.116H179.56z"/>
	<path fill="#6DBA47" d="M183.282,78.006c0.436,0.284,1.208,0.587,1.945,0.587c1.073,0,1.576-0.537,1.576-1.208
		c0-0.704-0.419-1.09-1.509-1.492c-1.459-0.52-2.146-1.324-2.146-2.297c0-1.309,1.057-2.381,2.801-2.381
		c0.821,0,1.542,0.235,1.996,0.502l-0.369,1.073c-0.319-0.201-0.906-0.469-1.66-0.469c-0.872,0-1.358,0.503-1.358,1.106
		c0,0.671,0.486,0.973,1.543,1.375c1.409,0.536,2.129,1.241,2.129,2.448c0,1.425-1.106,2.432-3.035,2.432
		c-0.889,0-1.71-0.219-2.281-0.554L183.282,78.006z"/>
	<path fill="#6DBA47" d="M198.172,79.514l-0.117-1.022h-0.05c-0.453,0.637-1.325,1.207-2.482,1.207
		c-1.644,0-2.482-1.157-2.482-2.331c0-1.962,1.744-3.035,4.88-3.019v-0.167c0-0.671-0.185-1.879-1.845-1.879
		c-0.754,0-1.542,0.235-2.113,0.604l-0.335-0.973c0.671-0.437,1.644-0.721,2.667-0.721c2.482,0,3.085,1.694,3.085,3.32v3.035
		c0,0.704,0.034,1.392,0.134,1.945H198.172z M197.955,75.373c-1.61-0.034-3.438,0.251-3.438,1.827c0,0.956,0.637,1.409,1.392,1.409
		c1.056,0,1.727-0.671,1.962-1.358c0.05-0.151,0.084-0.318,0.084-0.47V75.373z"/>
	<path fill="#6DBA47" d="M124.542,88.334h6.087v1.225h-4.628v3.756h4.276v1.208h-4.276v5.114h-1.459V88.334z"/>
	<path fill="#6DBA47" d="M136.398,99.636l-0.117-1.022h-0.05c-0.453,0.637-1.325,1.207-2.482,1.207
		c-1.644,0-2.482-1.157-2.482-2.331c0-1.962,1.744-3.035,4.88-3.019v-0.168c0-0.671-0.185-1.878-1.845-1.878
		c-0.754,0-1.542,0.234-2.113,0.604l-0.335-0.973c0.671-0.436,1.644-0.721,2.667-0.721c2.482,0,3.085,1.693,3.085,3.32v3.035
		c0,0.704,0.034,1.392,0.134,1.945H136.398z M136.18,95.495c-1.61-0.034-3.438,0.251-3.438,1.827c0,0.956,0.637,1.409,1.392,1.409
		c1.056,0,1.727-0.671,1.962-1.358c0.05-0.151,0.084-0.318,0.084-0.47V95.495z"/>
	<path fill="#6DBA47" d="M140.422,91.52l1.593,4.562c0.269,0.737,0.486,1.408,0.654,2.079h0.05c0.185-0.671,0.419-1.342,0.688-2.079
		l1.576-4.562h1.543l-3.186,8.116h-1.409l-3.086-8.116H140.422z"/>
	<path fill="#6DBA47" d="M155.095,95.511c0,3.001-2.08,4.31-4.042,4.31c-2.197,0-3.891-1.61-3.891-4.176
		c0-2.717,1.778-4.31,4.025-4.31C153.519,91.336,155.095,93.029,155.095,95.511z M148.656,95.595c0,1.777,1.023,3.119,2.465,3.119
		c1.409,0,2.465-1.325,2.465-3.153c0-1.375-0.688-3.119-2.432-3.119S148.656,94.052,148.656,95.595z"/>
	<path fill="#6DBA47" d="M163.748,97.423c0,0.839,0.017,1.576,0.067,2.214h-1.308l-0.084-1.325h-0.034
		c-0.385,0.654-1.241,1.51-2.683,1.51c-1.274,0-2.8-0.704-2.8-3.556V91.52h1.476v4.494c0,1.543,0.47,2.582,1.811,2.582
		c0.99,0,1.677-0.688,1.945-1.341c0.084-0.219,0.134-0.486,0.134-0.755v-4.98h1.476V97.423z"/>
	<path fill="#6DBA47" d="M166.195,94.052c0-0.956-0.017-1.777-0.067-2.532h1.291l0.05,1.593h0.067
		c0.369-1.09,1.257-1.777,2.247-1.777c0.167,0,0.285,0.017,0.419,0.05v1.393c-0.151-0.034-0.302-0.051-0.503-0.051
		c-1.04,0-1.778,0.788-1.979,1.896c-0.033,0.201-0.067,0.436-0.067,0.688v4.326h-1.459V94.052z"/>
	<path fill="#6DBA47" d="M173.389,89.239c0.017,0.504-0.352,0.906-0.939,0.906c-0.52,0-0.889-0.402-0.889-0.906
		c0-0.52,0.386-0.922,0.922-0.922C173.037,88.317,173.389,88.719,173.389,89.239z M171.746,99.636V91.52h1.476v8.116H171.746z"/>
	<path fill="#6DBA47" d="M177.447,89.189v2.331h2.113v1.123h-2.113v4.377c0,1.007,0.285,1.576,1.106,1.576
		c0.386,0,0.671-0.05,0.855-0.101l0.067,1.107c-0.285,0.117-0.738,0.201-1.308,0.201c-0.688,0-1.241-0.219-1.593-0.621
		c-0.419-0.436-0.57-1.156-0.57-2.112v-4.428h-1.258V91.52h1.258v-1.945L177.447,89.189z"/>
	<path fill="#6DBA47" d="M181.941,95.846c0.034,1.996,1.308,2.817,2.784,2.817c1.057,0,1.694-0.185,2.247-0.419l0.251,1.057
		c-0.52,0.234-1.409,0.503-2.7,0.503c-2.499,0-3.991-1.644-3.991-4.092s1.442-4.377,3.807-4.377c2.649,0,3.354,2.331,3.354,3.823
		c0,0.302-0.034,0.537-0.05,0.688H181.941z M186.268,94.79c0.017-0.938-0.386-2.397-2.046-2.397c-1.493,0-2.146,1.375-2.264,2.397
		H186.268z"/>
</g>
</svg>
