<?xml version="1.0" standalone="no"?>
<!DOCTYPE svg PUBLIC "-//W3C//DTD SVG 1.1//EN" "http://www.w3.org/Graphics/SVG/1.1/DTD/svg11.dtd" >
<svg xmlns="http://www.w3.org/2000/svg" xmlns:xlink="http://www.w3.org/1999/xlink" version="1.1">
<metadata></metadata>
<defs>
<font id="aktiv_groteskbold" horiz-adv-x="1212" >
<font-face units-per-em="2048" ascent="1595" descent="-453" />
<missing-glyph horiz-adv-x="454" />
<glyph horiz-adv-x="0" />
<glyph horiz-adv-x="0" />
<glyph unicode="&#xd;" horiz-adv-x="454" />
<glyph horiz-adv-x="0" />
<glyph unicode="&#x9;" horiz-adv-x="454" />
<glyph horiz-adv-x="0" />
<glyph unicode=" "  horiz-adv-x="454" />
<glyph unicode="&#x09;" horiz-adv-x="454" />
<glyph unicode="&#xa0;" horiz-adv-x="454" />
<glyph unicode="!" horiz-adv-x="561" d="M127 1462h307l-20 -999h-267zM139 0v326h283v-326h-283z" />
<glyph unicode="&#x22;" horiz-adv-x="786" d="M70 1456h266l-17 -555h-235zM455 1456h262l-15 -555h-233z" />
<glyph unicode="#" d="M39 326v211h197l51 315h-185v209h222l53 328h244l-54 -328h219l54 328h243l-53 -328h137v-209h-170l-51 -315h152v-211h-191l-51 -326h-244l52 326h-220l-51 -326h-243l51 326h-162zM479 537h219l56 315h-219z" />
<glyph unicode="$" d="M61 446h287q3 -113 47 -172q43 -58 135 -73v393q-222 41 -337 141q-117 102 -117 301q0 79 28 152q27 70 84 127q55 55 142 90q84 34 200 43v186h134v-188q128 -9 210 -49q86 -42 134 -99q50 -59 71 -129q23 -76 31 -141l-274 -35q-15 111 -56 168q-41 56 -116 68v-377 l61 -12q205 -43 307 -148q98 -101 98 -295q0 -75 -24 -149q-24 -73 -80 -135q-53 -59 -145 -101q-85 -39 -215 -45v-211h-134v213l-4 -6q-127 12 -213 53q-84 40 -141 103q-54 60 -82 145q-28 86 -31 182zM356 1063q0 -76 43 -119q42 -42 129 -63v350h-4q-49 -6 -86 -25 q-32 -17 -51 -39t-25 -49t-6 -55zM662 193v8q100 9 137 61t37 123q0 52 -37 104q-38 54 -137 74v-370z" />
<glyph unicode="%" horiz-adv-x="1988" d="M61 997q0 115 31 203q30 86 82 141q51 54 121 82q67 27 147 27q84 0 154 -27q73 -28 121 -82q52 -58 78 -141q28 -89 28 -203q0 -120 -26 -202q-27 -85 -80 -138t-123 -77q-73 -25 -154 -25l2 -2q-76 0 -149 25q-70 24 -123 77q-52 52 -80 140q-29 92 -29 202zM303 995 q0 -138 37 -190q36 -51 102 -51v-4q67 0 105 53q37 52 37 190q0 140 -37 195t-105 55q-65 0 -102 -55t-37 -193zM500 -6l712 1415h277l-713 -1415h-276zM1169 403q0 115 31 203t82 142q50 52 121 81q67 27 147 27q84 0 154 -27q74 -28 121 -81q51 -58 78 -142 q28 -89 28 -203q0 -120 -26 -202q-27 -85 -80 -138t-123 -77q-73 -25 -154 -25l2 -2q-76 0 -149 25q-70 24 -123 77q-52 52 -80 140q-29 92 -29 202zM1411 401q0 -138 37 -190q36 -51 102 -51v-4q67 0 105 53q37 52 37 190q0 140 -37 195t-105 55q-65 0 -102 -55t-37 -193z " />
<glyph unicode="&#x26;" horiz-adv-x="1372" d="M53 381q0 75 25 139q24 63 67 111q43 49 99 90q53 39 116 74q-50 58 -100 147q-45 80 -45 178q0 73 29 142q25 61 78 110q50 47 120 74q71 27 158 27q93 0 166 -25q71 -24 121 -68q51 -45 74 -104q24 -62 24 -133q0 -66 -20 -119t-58 -100q-39 -48 -86 -84 q-39 -30 -104 -70l266 -311q28 68 37 135q10 78 10 141h254q0 -133 -37 -248q-37 -116 -104 -217l229 -270h-328l-75 90l-11 -14q-59 -48 -153 -88q-87 -37 -213 -37q-154 0 -258 37q-106 38 -166 98q-61 61 -88 137q-27 77 -27 158zM338 414q0 -54 14 -95q14 -40 47 -73 q31 -31 84 -49q55 -19 129 -19q69 0 121 19q42 15 82 43l-332 391v-6q-60 -35 -102 -86q-43 -52 -43 -125zM469 1102q0 -32 14 -64q14 -33 33 -61q17 -26 37 -49q24 -28 31 -35l2 -2q59 36 104 90q43 52 43 129q0 68 -33 104q-34 37 -94 37q-63 0 -100 -37t-37 -112z" />
<glyph unicode="'" horiz-adv-x="421" d="M70 1456h282l-14 -555h-254z" />
<glyph unicode="(" horiz-adv-x="610" d="M80 616q0 112 16 240q13 106 47 234q27 101 78 217q44 100 105 192h272q-119 -210 -172 -426q-51 -208 -51 -450q0 -234 53 -451q53 -216 172 -426h-272l-2 -12q-61 92 -105 192q-51 116 -78 217q-34 128 -47 234q-16 128 -16 239z" />
<glyph unicode=")" horiz-adv-x="610" d="M8 -250q118 208 172 428q53 217 53 453q0 244 -51 452q-54 220 -172 428h273q57 -87 104 -192q51 -116 78 -217q34 -128 47 -234q16 -128 16 -239q0 -112 -16 -240q-13 -104 -47 -233q-27 -101 -78 -217q-48 -108 -104 -193h-273z" />
<glyph unicode="*" horiz-adv-x="851" d="M41 1110l94 223l211 -123l-51 252h262l-51 -252l211 123l94 -223l-254 -57l205 -203l-201 -143l-135 227l-135 -227l-201 143l205 203z" />
<glyph unicode="+" d="M119 573v248h358v389h258v-389h359v-248h-359v-389h-258v389h-358z" />
<glyph unicode="," horiz-adv-x="503" d="M63 -193l68 523h279l-127 -523h-220z" />
<glyph unicode="-" horiz-adv-x="796" d="M92 471v283h613v-283h-613z" />
<glyph unicode="." horiz-adv-x="503" d="M106 0v330h293v-330h-293z" />
<glyph unicode="/" horiz-adv-x="784" d="M12 0l475 1503h285l-475 -1503h-285z" />
<glyph unicode="0" d="M61 709q0 194 37 333q38 141 109 234q71 92 172 135t227 43q255 0 395 -180q142 -183 142 -565q0 -383 -142 -566q-140 -180 -399 -180h-4q-255 0 -395 180q-142 183 -142 566zM360 709q0 -110 13 -209q11 -85 41 -156q27 -64 73 -98q44 -33 113 -33l-4 -4q68 0 115 35 q46 34 73 98q30 71 41 156q13 99 13 209q0 109 -13 208q-11 85 -41 156q-27 64 -73 98q-47 35 -113 35q-69 0 -113 -33q-46 -34 -73 -98q-27 -65 -39 -155q-13 -99 -13 -209z" />
<glyph unicode="1" d="M160 1128l452 287h244v-1415h-293v1083l-276 -165z" />
<glyph unicode="2" d="M74 1014q18 86 53 168q35 80 96 141t154 96t227 35q238 0 361 -117q122 -116 122 -317q0 -90 -20 -160q-22 -76 -63 -143q-45 -73 -111 -142q-80 -83 -160 -153q-15 -13 -31 -26.5t-36 -29t-31 -24.5q-51 -42 -107 -92h582l-31 -250h-981v215l-12 -4q88 77 174 147 q60 50 174 148q135 121 152 137q67 64 108 119q46 62 66 115q22 58 22 122q0 91 -49 146t-135 55q-103 0 -160 -45q-59 -47 -86 -174z" />
<glyph unicode="3" d="M74 449h293l-9 -11q9 -131 68 -184t168 -53q98 0 160 47q61 46 61 153t-51 152q-53 47 -172 47h-143v252h159q183 0 183 182q0 29 -11 66q-9 32 -30 55q-22 25 -60 37t-92 12q-101 0 -158 -45q-59 -47 -86 -160l-274 37q19 92 55 166q37 76 98 131t152 86t215 31 q118 0 209 -31q93 -31 152 -82q62 -53 92 -123t30 -149q0 -107 -45 -184q-48 -83 -143 -133q122 -52 172 -142q49 -88 49 -192q0 -96 -29 -185q-26 -80 -90 -141q-59 -56 -157 -92q-90 -33 -232 -33q-153 0 -254 43q-97 41 -161 115q-61 70 -89 158q-27 85 -30 170z" />
<glyph unicode="4" d="M53 317v195l647 903h263v-868h180l-31 -230h-149v-317h-273v317h-637zM346 547h344v493z" />
<glyph unicode="5" d="M109 412h286v-6q9 -97 56 -150q45 -51 159 -51q98 0 154 59q55 58 55 195q0 120 -53 176q-52 55 -166 55q-76 0 -129 -24q-49 -22 -92 -72h-242l70 815h815v-248h-576l-26 -301q48 34 117 49q77 17 125 17q119 0 200 -37q86 -39 139 -101q56 -65 80 -147q25 -86 25 -178 q0 -121 -35 -217q-36 -98 -98 -160q-63 -63 -154 -94t-196 -31q-239 0 -371 111q-131 110 -143 340z" />
<glyph unicode="6" d="M98 614q0 241 43 398t121 258q75 97 178 141q101 43 215 43q213 0 320 -88q108 -89 135 -272l-266 -33l6 -2q-6 22 -23 61q-14 31 -32 49q-21 21 -56 33t-86 12q-133 0 -196 -112q-65 -115 -74 -307q58 64 135 94q84 33 176 33q207 3 320 -119q110 -119 110 -350 q0 -113 -37 -203q-39 -95 -100 -156q-62 -62 -160 -98q-96 -35 -215 -35q-150 0 -250 59q-96 57 -157 152q-58 90 -82 209q-25 122 -25 233zM397 440q3 -48 19 -98q14 -43 43 -80q28 -36 67 -53q43 -19 97 -19l-9 -8q99 0 166 64q68 65 68 192q0 112 -51 178q-53 68 -172 68 q-43 0 -86 -12q-36 -10 -76 -41q-32 -25 -51 -74q-18 -47 -15 -117z" />
<glyph unicode="7" d="M90 1171v248h1000v-221q-158 -294 -271 -577q-115 -289 -205 -621h-317v2q100 322 215 610q116 290 252 559h-674z" />
<glyph unicode="8" d="M66 401q0 112 61 197q62 86 154 133l-5 -6q-178 102 -178 326q0 83 31 159q30 74 92 127q63 54 158 84q98 31 217 31q129 0 227 -31q99 -31 158 -82q63 -54 90 -127q29 -79 29 -161q0 -218 -178 -320q98 -46 157 -129q60 -85 60 -201q0 -202 -135 -319t-406 -117 q-267 0 -399 117q-133 118 -133 319zM330 401q0 -95 61 -153t199 -58q135 0 198 60q62 59 62 153q0 91 -55 146t-201 55q-77 0 -123 -14q-49 -15 -80 -43t-43 -66q-12 -37 -12 -82zM360 1032q0 -97 56 -147q55 -49 178 -49q124 0 176 49q53 50 53 147q0 79 -49 137t-176 58 q-57 0 -106 -17q-44 -15 -72 -43t-39 -63q-12 -38 -12 -76z" />
<glyph unicode="9" d="M76 958q0 114 37 201q39 92 104 154q63 60 164 100q93 37 215 37q150 0 250 -59q99 -58 158 -154q56 -91 81 -215q25 -125 25 -240q0 -260 -39 -413q-42 -167 -106 -250q-67 -87 -164 -123q-90 -33 -209 -33q-228 0 -350 96q-121 95 -136 299h273l-2 -4q9 -74 53 -118 q43 -43 150 -43q134 0 190 108q54 105 57 313q-58 -64 -137 -98q-76 -33 -180 -33q-206 0 -320 123t-114 352zM358 967q0 -105 54 -181q52 -73 172 -73h4q42 0 86 12q39 11 76 43q35 30 53 80q19 52 16 119q-3 51 -18 98q-14 43 -43 80q-26 33 -68 55q-40 21 -98 21 q-99 0 -166 -64q-68 -65 -68 -190z" />
<glyph unicode=":" horiz-adv-x="503" d="M106 0v330h293v-330h-293zM106 739v330h293v-330h-293z" />
<glyph unicode=";" horiz-adv-x="503" d="M63 -193l68 523h279l-127 -523h-220zM106 739v330h293v-330h-293z" />
<glyph unicode="&#x3c;" d="M150 582v225l937 410v-265l-606 -256l606 -256v-268z" />
<glyph unicode="=" d="M158 348v248h897v-248h-897zM158 801v248h897v-248h-897z" />
<glyph unicode="&#x3e;" d="M125 172v264l606 254l-606 258v269l938 -410v-225z" />
<glyph unicode="?" horiz-adv-x="1050" d="M18 1065q15 88 50 166t96 133q62 56 149 90q85 33 213 33q220 0 342 -101q123 -102 123 -272q0 -66 -12 -115q-10 -41 -35 -86q-19 -33 -49 -67q-27 -30 -59 -62l-70 -69q-32 -32 -57 -68q-27 -39 -39 -69q-15 -37 -15 -80v-35h-282v47h-8q0 54 16 104q13 42 43 86 q26 39 61 74q11 11 35 33t37 35l51 51q27 27 43 51q21 32 29 62q10 38 10 75q0 79 -45 121q-46 43 -123 43q-104 0 -160 -47q-55 -46 -79 -166zM362 0v326h283v-326h-283z" />
<glyph unicode="@" horiz-adv-x="2056" d="M102 420q0 181 45 317q47 141 123 252q77 111 176 191q103 83 209 133q118 56 224 78q114 24 215 24q198 0 352 -51q163 -54 274 -150q114 -99 178 -245q66 -150 66 -338q0 -169 -43 -291q-44 -124 -113 -199q-70 -77 -159 -114q-87 -37 -179 -37q-110 0 -178 35 q-69 36 -90 122q-63 -97 -141 -135q-75 -37 -166 -37q-83 0 -150 31q-64 30 -108 86q-45 58 -66 127q-20 67 -20 154q0 130 37 237q39 113 98 189q61 79 148 123q85 43 188 43q64 0 131 -31q62 -29 111 -103l18 111h256l-115 -666q-2 -6 -2 -24q0 -72 64 -72q49 0 96 27 q45 26 84 84q38 57 59 141q23 94 23 207q0 155 -45 262q-47 113 -131 182q-86 71 -205 105q-122 35 -270 35q-152 0 -291 -56t-242 -159q-104 -104 -166 -252q-61 -146 -61 -330q0 -144 41 -272q40 -125 123 -217q82 -91 209 -144q122 -51 295 -51q162 0 268 47t164 117h264 l-2 2q-37 -75 -94 -135q-64 -67 -150 -115q-91 -51 -205 -80q-121 -31 -258 -31q-209 0 -379 66q-163 63 -278 178q-112 112 -172 275t-60 354zM817 401q0 -104 37 -153t96 -49q55 0 94 20q42 22 68 55q29 37 43 80q18 55 25 95l10 65l-6 -6q8 44 8 94q0 43 -16 80 q-13 31 -48 55q-30 21 -81 21q-41 0 -89 -23q-42 -20 -73 -65q-32 -46 -49 -111q-19 -71 -19 -158z" />
<glyph unicode="A" horiz-adv-x="1429" d="M20 0l549 1462h291l549 -1462h-328l-116 338h-512l-117 -338h-316zM530 590h355l-178 524z" />
<glyph unicode="B" horiz-adv-x="1325" d="M150 0v1462l518 -6q170 -3 268 -31q102 -29 166 -84q63 -54 86 -122q24 -71 24 -154q0 -89 -36 -162q-37 -76 -140 -129q67 -36 109 -72q45 -38 67 -79q25 -45 33 -88q10 -52 10 -93q0 -95 -26 -174q-27 -82 -92 -141q-64 -58 -168 -92q-107 -35 -258 -35h-561zM434 236 h256v-3q78 0 127 15t80 43t43 65q12 38 12 84q0 96 -51 144q-52 49 -180 49h-287v-397zM436 877h266l-2 2q121 0 166 45t45 129q0 90 -57 127q-58 37 -197 37h-221v-340z" />
<glyph unicode="C" horiz-adv-x="1460" d="M92 727q0 177 47 320q45 138 135 241q88 101 215 154t283 53q137 0 244 -35q104 -34 174 -98q71 -65 115 -158q41 -85 63 -207l-303 -39q-21 129 -86 203t-203 74q-175 0 -266 -131q-92 -133 -92 -375q0 -244 98 -375t262 -131q141 0 209 74q69 75 84 209h328l-13 -6 q-9 -114 -53 -215q-42 -96 -121 -172q-75 -72 -188 -113q-112 -41 -258 -41q-166 0 -291 55q-127 56 -211 156q-85 101 -129 244q-43 139 -43 313z" />
<glyph unicode="D" horiz-adv-x="1509" d="M150 0v1462l544 2q335 0 523 -182t188 -541q0 -185 -51 -319q-54 -143 -150 -234q-100 -95 -239 -141q-143 -47 -320 -47h-495zM453 262h196l-4 -2q119 0 203 35t135 98q54 66 78 152t24 194q0 114 -20 195q-21 86 -68 145q-45 57 -120 92q-70 33 -183 33h-241v-942z" />
<glyph unicode="E" horiz-adv-x="1236" d="M150 0v1462h997v-260h-692v-319h651v-262h-651v-361h735l-31 -260h-1009z" />
<glyph unicode="F" horiz-adv-x="1196" d="M150 0v1462h960v-262h-655v-344h616v-262h-616v-594h-305z" />
<glyph unicode="G" horiz-adv-x="1486" d="M104 729q0 174 48 320q45 136 133 241q84 100 213 154q127 53 278 53q141 0 244 -35q101 -34 172 -96q70 -61 113 -143q42 -80 61 -179l-303 -38q-10 48 -31 98q-19 46 -51 74q-36 31 -82 45q-53 16 -123 16q-177 0 -266 -133q-88 -131 -88 -375q0 -241 90 -375 q88 -131 289 -131q92 0 166 19q69 18 135 59v244h-279v254l563 -2v-619q-111 -102 -270 -162q-152 -57 -321 -57q-175 0 -303 55q-133 57 -216 156q-85 101 -129 244q-43 139 -43 313z" />
<glyph unicode="H" horiz-adv-x="1488" d="M150 0v1462h305v-565h579v565h305v-1462h-305v614h-579v-614h-305z" />
<glyph unicode="I" horiz-adv-x="604" d="M150 0v1462h305v-1462h-305z" />
<glyph unicode="J" horiz-adv-x="1302" d="M61 504h306v-8q6 -70 20 -117q14 -49 45 -88q30 -37 76 -55q49 -19 117 -19q124 0 184 78q57 75 57 219v942h305v-960q0 -138 -38 -234q-40 -100 -111 -168q-68 -65 -172 -100q-98 -33 -223 -33q-272 0 -412 131q-142 133 -154 412z" />
<glyph unicode="K" horiz-adv-x="1382" d="M150 0v1462h307v-585l538 585h334l-485 -549l538 -913h-340l-411 715l-174 -178v-537h-307z" />
<glyph unicode="L" horiz-adv-x="1196" d="M150 0v1462h305v-1200h692l-33 -262h-964z" />
<glyph unicode="M" horiz-adv-x="1761" d="M150 0v1462h366l365 -1091l374 1091h357v-1462h-281v975l-334 -975h-237l-336 973v-973h-274z" />
<glyph unicode="N" horiz-adv-x="1472" d="M150 0v1462h274l602 -958v958h297v-1462h-272l-605 950v-950h-296z" />
<glyph unicode="O" horiz-adv-x="1597" d="M96 731q0 180 49 320q48 136 142 241q91 101 221 154t291 53q163 0 293 -53q132 -54 219 -154q90 -103 135 -241q47 -143 47 -320q0 -183 -45 -319q-46 -139 -135 -242q-88 -102 -217 -154q-130 -53 -295 -53h-6q-163 0 -293 53q-132 54 -219 154q-89 103 -138 242 q-49 140 -49 319zM410 731q0 -244 94 -375t289 -131v-2q194 0 288 131q95 133 95 375t-95 375t-288 133q-195 0 -289 -131t-94 -375z" />
<glyph unicode="P" horiz-adv-x="1310" d="M150 0v1462l520 -2q168 0 278 -37t174 -98q66 -63 90 -145q25 -86 25 -172q0 -93 -25 -185q-23 -85 -90 -155q-63 -66 -172 -107q-104 -39 -270 -39h-229v-522h-301zM449 774h219l-6 -6q77 0 133 16q53 15 84 43t43 72q12 43 12 92q0 51 -12 92q-12 40 -43 68 q-32 29 -82 43q-49 14 -131 14h-217v-434z" />
<glyph unicode="Q" horiz-adv-x="1599" d="M98 733q0 180 49 320q48 136 142 241q91 101 221 154t291 53q163 0 293 -53q132 -54 219 -154q90 -103 135 -241q47 -143 47 -320q0 -178 -47 -321q-46 -139 -139 -240l178 -219l-184 -156l-187 230l-6 2q-137 -64 -313 -64q-163 0 -293 53q-132 54 -219 154 q-89 103 -138 242q-49 140 -49 319zM410 731q0 -240 96 -377q94 -135 289 -135q38 0 75 6q28 5 70 19l-178 219l180 151l166 -208q61 116 61 323q0 242 -92 375t-284 133q-195 0 -289 -131t-94 -375z" />
<glyph unicode="R" horiz-adv-x="1337" d="M150 0v1462l518 -2q175 0 282 -39q113 -41 176 -104q64 -64 88 -143q25 -83 25 -156q0 -146 -51 -238q-53 -95 -172 -159l297 -621h-330l-246 549h-286v-549h-301zM451 801h237l4 -4q67 0 117 16q46 15 74 43t37 68q10 45 10 86q0 38 -12 75q-11 34 -44 64q-32 29 -81 43 q-56 16 -131 16h-211v-407z" />
<glyph unicode="S" horiz-adv-x="1320" d="M57 477h310l2 -8q9 -135 86 -197q76 -61 227 -61q68 0 121 16q46 14 80 41q31 25 43 60q12 34 12 73q0 60 -43 109q-45 51 -158 72l-190 34q-111 20 -199 56q-86 35 -143 86q-58 52 -88 129q-31 79 -31 180q0 105 43 184q44 81 117 133q75 53 178 80q113 29 229 29 q160 0 267 -37q109 -38 172 -98q67 -64 96 -141q33 -86 41 -166l-289 -37q-21 119 -86 172t-197 53q-77 0 -127 -12q-44 -11 -79 -35q-31 -22 -43 -49q-13 -29 -13 -60q0 -81 47 -122t158 -62l201 -39q238 -47 348 -151q111 -105 111 -303q0 -99 -37 -177q-38 -81 -107 -141 q-67 -59 -178 -94q-103 -33 -252 -33q-298 0 -457 129q-160 130 -172 387z" />
<glyph unicode="T" horiz-adv-x="1269" d="M41 1198v264h1188v-264h-441v-1198h-307v1198h-440z" />
<glyph unicode="U" horiz-adv-x="1419" d="M121 598v864l307 2v-870q0 -186 66 -277q66 -90 219 -90t219 90q65 89 65 277v870h306v-870q0 -164 -41 -285q-40 -119 -117 -196q-75 -75 -187 -113q-110 -37 -247 -37q-138 0 -248 37q-109 37 -187 115q-75 75 -116 196q-39 116 -39 287z" />
<glyph unicode="V" horiz-adv-x="1427" d="M20 1462h340l355 -1034l364 1034h328l-549 -1462h-289z" />
<glyph unicode="W" horiz-adv-x="1982" d="M20 1462h345l235 -1016l240 1008h323l250 -1008l221 1016h328l-397 -1462h-297l-273 1081l-264 -1081h-289z" />
<glyph unicode="X" horiz-adv-x="1400" d="M12 0l510 770l-475 692h348l301 -467l308 467h327l-467 -700l525 -762h-349l-354 532l-340 -532h-334z" />
<glyph unicode="Y" horiz-adv-x="1345" d="M20 1462h340l316 -592l325 592h324l-494 -866v-596h-305v596z" />
<glyph unicode="Z" horiz-adv-x="1202" d="M47 0v223l731 977h-717v262h1082v-225l-729 -975h762l-31 -262h-1098z" />
<glyph unicode="[" horiz-adv-x="684" d="M147 -254v1757h517v-246h-228v-1265h228v-246h-517z" />
<glyph unicode="\" horiz-adv-x="784" d="M12 1503h281l479 -1503h-280z" />
<glyph unicode="]" horiz-adv-x="684" d="M20 -8h228v1265h-228v246h517v-1757h-517v246z" />
<glyph unicode="^" d="M74 606l415 856h232l416 -856h-299l-234 514l-233 -514h-297z" />
<glyph unicode="_" horiz-adv-x="1024" d="M0 -252h1024v-106h-1024v106z" />
<glyph unicode="`" horiz-adv-x="847" d="M137 1534h326l246 -317h-265z" />
<glyph unicode="a" horiz-adv-x="1148" d="M63 297q0 109 50 180q49 71 129 111q78 40 178 55q107 16 201 19l137 6v53q0 97 -56 135q-55 37 -129 37q-170 0 -194 -129l-262 24q27 171 147 244q121 74 320 74q121 0 209 -31q86 -30 139 -86q52 -55 76 -135t24 -178v-676h-270v135l2 2q-66 -72 -143 -117t-205 -45 q-67 0 -135 19q-66 18 -113 57q-49 40 -76 101q-29 66 -29 145zM350 307q0 -54 37 -84t102 -30q113 0 181 51q38 25 63 71q25 45 25 109v55l-127 -6q-91 -3 -146 -18q-54 -15 -86 -37q-30 -21 -39 -49q-10 -30 -10 -62z" />
<glyph unicode="b" horiz-adv-x="1275" d="M127 0v1462l289 -2v-522q119 162 325 162q222 0 334 -152q111 -150 111 -416q0 -122 -31 -231q-30 -103 -92 -178q-62 -74 -148 -115q-87 -41 -194 -41q-90 0 -166 33q-79 34 -149 119v-119h-279zM412 518q0 -104 18 -166q18 -61 57 -100q40 -37 84 -49q47 -13 86 -13 q45 0 91 19q42 17 73 59q32 43 49 105q19 68 19 153q0 92 -19 160q-17 62 -49 105q-29 39 -73 57t-89 18q-54 0 -92 -14q-35 -13 -75 -45q-43 -43 -60 -98q-18 -59 -18 -152v-33z" />
<glyph unicode="c" horiz-adv-x="1165" d="M88 526q0 128 37 232q38 106 104 178q69 75 166 115q100 41 226 41q109 0 188 -27q80 -27 135 -76q56 -50 86 -117q33 -74 41 -149l-289 -39q-9 83 -47 133q-37 49 -127 49q-66 0 -108 -26q-44 -27 -68 -74q-27 -52 -35 -107q-10 -68 -10 -124q0 -61 10 -129 q8 -57 35 -109q24 -47 68 -74q42 -26 108 -26q87 0 133 49q47 50 56 141h290l-6 -6q-15 -194 -131 -307t-346 -113q-133 0 -233 41q-97 40 -160 115q-62 75 -92 178q-31 109 -31 231z" />
<glyph unicode="d" horiz-adv-x="1273" d="M90 539q0 121 31 229q29 101 90 178q59 74 145 115q87 41 195 41q75 0 160 -29q77 -26 149 -110v499h287v-1462h-279v141v2q-122 -174 -331 -174q-224 0 -336 152q-111 150 -111 418zM393 543q0 -92 19 -160q17 -61 49 -104q29 -39 71 -58q41 -18 86 -18q101 0 166 59 q43 43 60 98q18 58 18 152v37l2 2q0 103 -18 164q-17 59 -58 100q-38 38 -79 49q-47 13 -86 13q-42 0 -88 -19t-74 -57q-32 -43 -49 -105q-19 -68 -19 -153z" />
<glyph unicode="e" horiz-adv-x="1206" d="M90 539q0 138 39 239q40 104 111 178q70 73 170 111q98 37 217 37q245 0 368 -141t123 -381v-115h-741q3 -129 65 -203t185 -74q170 0 200 144h279l2 4q-27 -181 -143 -272q-119 -93 -338 -93q-266 0 -402 148q-135 147 -135 418zM383 657h461q0 110 -56 172t-167 62 q-55 0 -101 -19q-43 -18 -74 -49q-30 -30 -45 -73q-15 -44 -18 -93z" />
<glyph unicode="f" horiz-adv-x="776" d="M29 842v223h168v35q0 97 28 170q26 67 78 116q50 47 117 68q74 23 147 23q44 0 109 -7q57 -6 115 -24l-39 -209q-69 16 -123 16q-55 0 -101 -30q-45 -29 -45 -113v-41h248v-223h-248v-846h-286v846z" />
<glyph unicode="g" horiz-adv-x="1275" d="M94 561q0 113 31 215q29 97 90 170q58 70 145 111t195 41q90 0 166 -33q79 -35 147 -123v121h279v-920q0 -134 -27 -239t-88 -178q-62 -74 -160 -111t-235 -37q-121 0 -221 23q-91 21 -150 65q-61 45 -90 111q-33 74 -41 155h291l-4 -8q9 -41 24 -65q14 -22 41 -39 q24 -15 62 -21q37 -6 88 -6q77 0 125 31q46 29 67 80q21 50 27 112q6 65 6 131v33q-52 -76 -135 -117q-77 -38 -186 -38q-224 0 -336 145q-111 144 -111 391zM387 557q0 -168 66 -240q63 -69 159 -69q49 0 99 16q46 15 80 49q33 33 51 88t18 134v28h-4q0 98 -20 154 q-22 60 -56 90q-38 33 -78 41q-48 10 -86 10q-42 0 -88 -16q-41 -14 -73 -54q-33 -41 -49 -94q-19 -62 -19 -137z" />
<glyph unicode="h" d="M127 0v1462l283 -2v-528q66 87 147 127q84 41 176 41q183 0 271 -94t88 -301v-707h-287v668q0 113 -43 153q-44 41 -115 41q-51 0 -94 -16q-35 -13 -74 -47q-30 -30 -47 -68q-18 -41 -18 -86v-643h-287z" />
<glyph unicode="i" horiz-adv-x="544" d="M125 1204v258h295v-258h-295zM129 0v1069h287v-1069h-287z" />
<glyph unicode="j" horiz-adv-x="544" d="M-156 -344l41 215h-2q69 -16 121 -16q56 0 90 24q35 24 35 109v1079h287v-1073q0 -197 -88 -285t-265 -88q-57 0 -106 8q-53 9 -113 27zM125 1204v258h295v-258h-295z" />
<glyph unicode="k" horiz-adv-x="1181" d="M127 0v1462h281v-766l411 373h332l-389 -369l420 -700h-310l-315 541l-149 -135v-406h-281z" />
<glyph unicode="l" horiz-adv-x="544" d="M129 0v1462h287v-1462h-287z" />
<glyph unicode="m" horiz-adv-x="1792" d="M127 0v1069l276 -10v-144q59 90 140 134q79 43 168 43q114 0 190 -48q75 -48 105 -135q74 99 155 142q82 43 180 43q166 0 250 -93t84 -296v-715h-286v676q0 48 -11 94q-9 37 -26 57q-19 22 -43 31q-21 8 -52 8q-44 0 -79 -14t-70 -49q-26 -26 -45 -66t-19 -78v-655h-286 v676q0 52 -10 94q-8 35 -27 57t-43 31q-21 8 -51 8q-45 0 -80 -14t-70 -49q-27 -27 -45 -68t-18 -86v-643h-287z" />
<glyph unicode="n" d="M127 0v1069l272 -2v-147q62 91 152 137q85 43 182 43q183 0 271 -94t88 -301v-707h-287v668q0 113 -43 153q-44 41 -115 41q-51 0 -94 -16q-35 -13 -74 -47q-30 -30 -47 -68q-18 -41 -18 -86v-643h-287z" />
<glyph unicode="o" horiz-adv-x="1261" d="M86 532q0 134 37 238t108 178q69 72 172 113q98 39 224 39q129 0 227 -39q103 -41 172 -113q72 -75 109 -178q36 -101 36 -235q0 -137 -36 -238q-37 -103 -109 -178q-69 -72 -172 -113q-98 -39 -223 -39l-4 -4q-258 0 -400 148q-141 147 -141 421zM383 530 q0 -165 59 -251t185 -86l2 -3q122 0 184 89q61 88 61 251q0 165 -61 250q-62 86 -184 86q-123 0 -185 -86q-61 -85 -61 -250z" />
<glyph unicode="p" horiz-adv-x="1275" d="M127 -397v1466l281 -2v-141q122 174 335 174q222 0 334 -152q111 -150 111 -416q0 -122 -31 -231q-30 -103 -92 -178q-63 -75 -147 -115q-87 -41 -195 -41q-75 0 -160 29q-75 26 -149 115v-508h-287zM412 518q0 -104 18 -166q18 -61 57 -100q40 -37 84 -49q47 -13 86 -13 q45 0 91 19q42 17 73 59q32 43 49 105q19 68 19 153q0 92 -19 160q-17 62 -49 105q-29 39 -73 57t-89 18q-54 0 -92 -14q-35 -13 -75 -45q-43 -43 -60 -98q-18 -59 -18 -152v-33z" />
<glyph unicode="q" horiz-adv-x="1275" d="M96 541q0 121 31 229q29 101 90 178q59 74 145 115q87 41 195 41q90 0 166 -33q79 -35 147 -123v121h279v-1466h-287v530l6 6q-55 -82 -143 -125q-87 -43 -180 -43q-226 0 -338 152q-111 150 -111 418zM401 547q0 -92 19 -160q17 -61 49 -104q29 -39 72 -58 q41 -18 86 -18q101 0 166 59q41 41 59 99q18 59 18 151v37l2 2q0 103 -18 164t-57 100q-37 37 -80 49q-47 13 -86 13q-42 0 -88 -19t-74 -57q-32 -43 -49 -105q-19 -68 -19 -153z" />
<glyph unicode="r" horiz-adv-x="858" d="M127 0v1069l279 -2v-149q52 82 129 126q76 43 159 43q50 0 68 -2q31 -3 49 -6l-35 -260q-50 12 -121 12q-47 0 -90 -12q-42 -12 -78 -43q-37 -34 -55 -74t-18 -84v-618h-287z" />
<glyph unicode="s" horiz-adv-x="1099" d="M59 340h275h-17q15 -96 76 -123q66 -29 148 -29q100 0 145 25q43 24 43 84q0 42 -27 72q-28 31 -104 43l-147 24q-192 30 -289 105q-94 73 -94 225q0 78 34 139q34 60 97 105q60 43 147 67q89 25 189 25q124 0 213 -25q86 -24 141 -67q54 -42 82 -103q30 -65 41 -127 l-256 -32q-18 74 -64 108q-47 35 -147 35q-61 0 -94 -8q-38 -9 -60 -25q-23 -16 -31 -33q-8 -16 -8 -34q0 -51 31 -76q30 -24 123 -39l135 -23q102 -16 186 -47q76 -28 117 -69q45 -45 62 -101q18 -58 18 -135q0 -150 -115 -242t-354 -92q-92 0 -182 19q-88 19 -154 61 q-65 42 -110 115q-44 71 -50 178z" />
<glyph unicode="t" horiz-adv-x="776" d="M20 842v223h168v285h287v-285h246v-223h-246v-494q0 -82 35 -112q36 -31 90 -31q19 0 59 4q34 3 60 12l41 -211q-58 -18 -115 -24q-55 -6 -106 -6q-174 0 -260 83t-86 283v500z" />
<glyph unicode="u" horiz-adv-x="1202" d="M117 362v707l286 -2v-668q0 -112 41 -153q39 -39 111 -39q52 0 92 16q30 12 70 47q35 27 53 68q18 40 18 86v643h287v-1069h-278v147q-63 -92 -148 -137q-82 -43 -178 -43q-181 0 -268 96q-86 95 -86 301z" />
<glyph unicode="v" horiz-adv-x="1161" d="M16 1069h332l240 -743l239 743h318l-422 -1069h-287z" />
<glyph unicode="w" horiz-adv-x="1583" d="M12 1069h312l149 -709l205 701h250l194 -701l150 709h299l-311 -1069h-279l-190 705l-193 -705h-274z" />
<glyph unicode="x" horiz-adv-x="1120" d="M16 0l387 549l-350 520h338l182 -305l205 305h299l-346 -504l373 -565h-332l-217 348l-227 -348h-312z" />
<glyph unicode="y" horiz-adv-x="1161" d="M16 1069h332l250 -702l233 702h314l-432 -1100q-46 -111 -70 -159q-38 -74 -76 -115q-45 -48 -100 -68q-61 -22 -143 -22q-52 0 -105 6q-51 6 -110 24l47 213v-2q62 -16 120 -16q56 0 93 29q35 27 59 98l33 90z" />
<glyph unicode="z" horiz-adv-x="1024" d="M76 0v195l520 651h-510v223h875v-195l-519 -651h543l-27 -223h-882z" />
<glyph unicode="{" horiz-adv-x="681" d="M47 506v237h19q67 0 96 39q31 42 31 105v313q0 155 81 227q83 74 215 74h185v-239h-92q-48 0 -86 -23q-33 -20 -33 -74v-344q0 -57 -27 -112q-28 -57 -104 -84q76 -27 104 -84q27 -56 27 -113v-344q0 -54 33 -74q36 -22 86 -22h92v-240h-185q-132 0 -215 74 q-81 72 -81 227v313q0 63 -31 105q-29 39 -96 39h-19z" />
<glyph unicode="|" horiz-adv-x="565" d="M147 -254v1757h271v-1757h-271z" />
<glyph unicode="}" horiz-adv-x="681" d="M6 1260v239h184q133 0 213 -74t80 -227v-313q0 -64 35 -105q33 -39 96 -39h19v-237h-19q-61 0 -94 -39t-33 -105v-313q0 -154 -79 -227q-80 -74 -213 -74h-185v240l88 -4q46 -3 86 22q33 20 33 74v344q0 60 27 115q28 58 106 84q-78 26 -106 84q-27 55 -27 114v344 q0 54 -33 74q-38 23 -86 23h-92z" />
<glyph unicode="~" d="M61 463h2q0 222 80 325t254 103q62 0 117 -25q48 -22 98 -51q71 -41 86 -49q44 -23 80 -23q113 0 113 144h256q0 -222 -80 -328q-79 -104 -254 -104q-65 0 -117 24q-32 14 -98 53q-17 10 -45.5 28.5t-40.5 25.5q-40 24 -80 24q-113 0 -113 -147h-258z" />
<glyph unicode="&#xa1;" horiz-adv-x="561" d="M127 -397l20 1003h267l20 -1003h-307zM139 743v326h283v-326h-283z" />
<glyph unicode="&#xa2;" d="M119 721q0 111 31 209q30 95 86 166q53 68 139 116t190 60v194h133v-190q90 -6 170 -35q71 -26 123 -78t78 -114q28 -67 37 -142l-285 -43q-9 63 -37 115q-27 50 -86 65v-641q119 27 131 185h291q-15 -181 -116 -291t-308 -125v-192h-133v194h-4q-101 0 -199 55 q-81 45 -137 117q-56 71 -80 166q-24 94 -24 209zM408 727q0 -51 6 -104q5 -47 22 -95q14 -40 47 -73q30 -30 76 -45v632l-2 -2q-47 -15 -74 -45t-45 -73q-18 -44 -24 -93t-6 -102z" />
<glyph unicode="&#xa3;" d="M113 600v223h129q0 2 -5.5 30t-7.5 44q-6 41 -6 92q0 123 37 207q38 87 98 141q63 57 146 84t172 27q124 0 209 -31q80 -29 131 -80q50 -50 74 -114q25 -68 34 -136l-243 -36q-18 75 -58 118t-135 43q-103 0 -151 -57q-50 -59 -50 -156q0 -66 7 -106q8 -47 10 -70h430 v-223h-399q2 -12 2 -37v-37q0 -74 -21 -147q-22 -78 -63 -133h700l-33 -246h-966l2 203q64 74 90 141q28 73 28 164v43q0 13 -4 49h-157z" />
<glyph unicode="&#xa4;" d="M84 1096l172 166l127 -140q54 30 104 43q63 17 121 17q60 0 115 -15q50 -13 104 -43l127 140l170 -166l-120 -123q35 -60 57 -137q20 -70 20 -154q0 -86 -20 -156q-22 -78 -57 -135l120 -125l-170 -164l-127 138q-51 -25 -104 -39q-55 -15 -113 -15t-121 17 q-44 12 -104 41l-127 -137l-172 163l123 125l-2 -6q-35 57 -57 135q-21 74 -21 152q0 84 21 158q22 77 57 137zM367 678q0 -64 12 -119q10 -48 41 -94q27 -41 74 -62q49 -22 110 -22v-4q62 0 111 22q45 20 73 62q31 46 41 94q13 60 13 121t-13 121q-11 51 -41 96 q-27 40 -73 61q-51 23 -111 23q-59 0 -110 -23q-48 -22 -74 -61q-31 -46 -41 -94q-12 -55 -12 -121z" />
<glyph unicode="&#xa5;" d="M23 1415h301l288 -586l293 586h285l-322 -600h226v-199h-344v-141h344v-199h-344v-276h-281v276h-344v199h344v141h-344v199h221z" />
<glyph unicode="&#xa6;" horiz-adv-x="565" d="M147 -254v723h271v-723h-271zM147 815v688h271v-688h-271z" />
<glyph unicode="&#xa7;" horiz-adv-x="1142" d="M74 174h282l-2 -8q9 -58 27 -96q18 -37 47 -60q27 -21 68 -30q40 -9 92 -9q107 0 149 33q43 34 43 86q0 40 -24 78t-117 59l-201 47q-74 16 -159 56q-65 30 -105 73t-55 99q-17 63 -17 127q0 89 45 149q47 62 129 105q-76 40 -122 104q-45 62 -45 172q0 76 34 137 q35 62 99 105q66 44 153 65q97 23 197 23q130 0 215 -27q86 -27 141 -73q58 -49 84 -105q29 -63 43 -117l-258 -61q-15 45 -33 74q-19 32 -45 49q-30 20 -63 28q-46 11 -88 11q-112 0 -154 -33q-43 -34 -43 -80q0 -13 4 -37q3 -19 19 -35t43 -28q33 -15 73 -25l220 -55 q167 -42 245 -123q74 -77 74 -190q0 -105 -39 -173q-41 -71 -137 -122q81 -44 123 -107q43 -64 43 -168q0 -87 -33 -149q-35 -65 -94 -107q-58 -41 -148 -63q-85 -21 -186 -21q-113 0 -201 21q-93 22 -157 69q-68 50 -111 129q-43 78 -55 203zM332 645q0 -23 6 -47 q7 -26 20 -45q15 -21 48 -41q32 -19 83 -31l80 -18l-8 2q13 -3 37 -6q14 -2 43 -2q34 0 64 6q31 6 55 24t39 45q14 25 14 68q0 23 -6 47t-21 45q-16 22 -47 41q-33 20 -82 31l-104 27q-15 3 -33 6q-12 2 -33 2q-64 0 -110 -37q-45 -36 -45 -117z" />
<glyph unicode="&#xa8;" horiz-adv-x="847" d="M84 1245v256h266v-256h-266zM498 1245v256h266v-256h-266z" />
<glyph unicode="&#xa9;" horiz-adv-x="1591" d="M90 725q0 167 55 301t152 231t223 148q130 53 277 53q159 0 284 -51q131 -54 222 -147q90 -92 143 -230q51 -131 51 -301q0 -167 -55 -301t-150 -229q-96 -96 -221 -148q-122 -51 -274 -51l-6 -8q-155 0 -285 53q-128 52 -221 148q-91 93 -144 231q-51 131 -51 301z M250 721q0 -131 41 -240t110 -184q70 -76 170 -117t220 -41h-7q115 0 215 41t170 117q71 77 111 184q41 109 41 240q0 136 -39 240q-40 107 -111 184q-70 76 -170 117t-215 41q-117 0 -217 -41t-170 -117q-69 -75 -110 -184q-39 -104 -39 -240zM395 721q0 93 27 170t80 133 q54 57 125 86q76 31 168 31q161 0 245 -78t99 -201l-215 -35q-8 55 -41 99q-30 41 -95 41q-46 0 -81 -21q-34 -21 -52 -55q-16 -31 -26 -78q-8 -39 -8 -88q0 -53 8 -92q10 -47 26 -78q18 -34 52 -55t81 -21q130 0 142 144h221h-2q-12 -145 -100 -230q-89 -86 -265 -86 q-98 0 -174 31q-73 30 -123 86q-48 54 -69 131q-23 84 -23 166z" />
<glyph unicode="&#xaa;" horiz-adv-x="872" d="M53 911q0 84 37 136q36 50 96 81q61 31 133 43q89 15 152 17l94 4v25q0 71 -37 98q-36 26 -94 26q-73 0 -102 -26q-30 -27 -39 -68l-199 19q24 121 111 178q85 55 237 55q99 0 160 -20q64 -21 105 -62q39 -39 57 -98t18 -129v-498h-204v96h-3q-48 -54 -104 -83 q-60 -31 -149 -31q-59 0 -105 14q-48 15 -86 45q-35 28 -57 74q-21 43 -21 104zM272 913q0 -79 103 -79q83 0 131 36q65 47 65 136v38l-92 -8q-91 -8 -110 -12q-39 -9 -62 -25q-22 -16 -28 -36q-7 -25 -7 -50z" />
<glyph unicode="&#xab;" horiz-adv-x="1120" d="M72 528l262 459h287l-238 -457l238 -469h-291zM532 528l261 459h286l-237 -457l237 -469h-291z" />
<glyph unicode="&#xac;" d="M147 655v248h897v-553h-256v305h-641z" />
<glyph unicode="&#xad;" horiz-adv-x="796" d="M92 471v283h613v-283h-613z" />
<glyph unicode="&#xae;" horiz-adv-x="1001" d="M59 1047q0 104 35 188t92 141q60 60 140 90q82 31 172 31q100 0 182 -31q79 -30 139 -90q61 -61 90 -141q31 -85 31 -186q0 -110 -33 -189q-35 -84 -92 -141t-139 -88t-172 -31l-10 -4q-97 0 -179 31q-75 28 -137 90q-58 58 -88 141q-31 85 -31 189zM172 1044 q0 -170 88 -258q90 -90 234 -90h-2q143 0 233 90t90 258q0 171 -88 259q-90 90 -233 90q-144 0 -234 -90q-88 -88 -88 -259zM324 840v434l170 2q58 0 96 -12q36 -12 59 -31q23 -20 29 -43q6 -24 6 -49q0 -49 -14 -74q-16 -28 -56 -49l93 -178h-123l-74 153h-78v-153h-108z M434 1083h70h2q41 0 55 17q12 15 12 41q0 25 -18 37t-63 12h-58v-107z" />
<glyph unicode="&#xaf;" horiz-adv-x="847" d="M125 1253v220h598v-220h-598z" />
<glyph unicode="&#xb0;" horiz-adv-x="720" d="M59 1157q0 56 23 117q20 53 61 94t97 62q58 22 120 22q61 0 119 -22q51 -19 94 -62t62 -94q22 -58 22 -117q0 -61 -22 -119q-19 -51 -62 -94q-41 -41 -94 -61q-61 -23 -119 -23q-59 0 -120 23q-55 21 -95 61t-61 96q-23 61 -23 119zM233 1159q0 -60 35 -98q34 -37 92 -37 l-6 -2q56 0 90 37q35 38 35 98t-33 96q-34 37 -88 37q-58 0 -92 -37q-33 -36 -33 -94z" />
<glyph unicode="&#xb1;" d="M119 573v248h358v389h258v-389h359v-248h-359v-325h320v-248h-897v248h319v325h-358z" />
<glyph unicode="&#xb2;" horiz-adv-x="843" d="M80 1155q11 55 37 111q23 50 65 92q37 37 103 63q64 25 149 25q149 0 225 -70q78 -72 78 -192q0 -43 -8 -76q-8 -31 -31 -70q-13 -22 -51 -69q-28 -35 -69 -76q-26 -26 -68 -57q-37 -28 -80 -64h315l-22 -182h-610v151l-7 -10q28 25 74 62t135 114q66 58 86 74 q37 29 62 61q24 30 37 62q12 30 12 67q0 41 -25 66t-69 25q-54 0 -84 -27t-45 -107z" />
<glyph unicode="&#xb3;" horiz-adv-x="843" d="M106 862h193l4 -14q9 -78 45 -111q35 -32 96 -32q57 0 95 24q36 23 36 90q0 51 -36 74q-39 25 -95 25h-86v163h88q55 0 84 29t29 72q0 47 -27 71q-28 25 -88 25q-50 0 -86 -25q-35 -24 -47 -96l-192 27q21 114 98 188t234 74q159 0 233 -68t74 -172q0 -56 -31 -104 q-29 -45 -82 -80q63 -26 98 -80q33 -50 33 -111q0 -126 -76 -202t-251 -76q-91 0 -160 29q-64 27 -105 71q-38 41 -57 99q-18 56 -21 110z" />
<glyph unicode="&#xb4;" horiz-adv-x="847" d="M137 1217l246 317h326l-308 -317h-264z" />
<glyph unicode="&#xb5;" d="M127 -397v1466h285v-668q0 -112 41 -153q39 -39 110 -39q52 0 92 16q30 12 70 47q35 27 53 68q19 43 19 86v643h286v-1069h-278v147q-46 -81 -109 -129q-60 -45 -145 -45q-28 0 -74 11q-36 9 -63 43v-424h-287z" />
<glyph unicode="&#xb6;" horiz-adv-x="1341" d="M31 995q0 95 30 181q28 81 103 149q67 62 190 100q118 37 295 37h559v-1747h-270v1514h-176v-1514h-270v822h2q-128 9 -215 49q-89 40 -144 102q-56 62 -80 141t-24 166z" />
<glyph unicode="&#xb7;" horiz-adv-x="503" d="M106 598v330h293v-330h-293z" />
<glyph unicode="&#xb8;" horiz-adv-x="847" d="M203 -293q54 -9 86 -12q23 -2 61 -2q90 0 90 57q0 28 -24 43q-22 14 -90 14h-74l80 205h157l-40 -112q50 -8 92 -25q35 -14 57 -39q23 -26 31 -51q8 -24 8 -55q0 -96 -76 -136t-205 -40q-38 0 -63 2q-36 3 -86 12v141z" />
<glyph unicode="&#xb9;" horiz-adv-x="843" d="M86 1253l289 162h200v-825h-217v616l-190 -102z" />
<glyph unicode="&#xba;" horiz-adv-x="862" d="M23 1081q0 200 110 310t293 110q187 0 297 -110q111 -111 111 -310q0 -96 -31 -178q-30 -80 -82 -135q-51 -54 -127 -82q-79 -29 -164 -29h-6q-187 0 -295 111q-106 109 -106 313zM246 1079q0 -115 43 -176t135 -61h-2q90 0 133 61t43 176q0 113 -43 174q-44 62 -135 62 q-87 0 -131 -62q-43 -61 -43 -174z" />
<glyph unicode="&#xbb;" horiz-adv-x="1120" d="M41 61l238 459l-238 467h293l256 -465l-260 -461h-289zM500 61l239 459l-239 467h293l256 -465l-261 -461h-288z" />
<glyph unicode="&#xbc;" horiz-adv-x="1918" d="M27 1253l288 162h201v-825h-217v616l-190 -102zM424 0l713 1415h276l-713 -1415h-276zM1126 168v129l400 530h188v-495h107l-21 -164h-86v-166h-194v166h-394zM1331 332h189v254z" />
<glyph unicode="&#xbd;" horiz-adv-x="1918" d="M27 1253l288 162h201v-825h-217v616l-190 -102zM365 0l712 1415h277l-713 -1415h-276zM1135 567q12 59 36 111q22 48 66 92q40 40 102 64q61 24 150 24q149 0 225 -70q78 -72 78 -192q0 -43 -8 -76q-7 -30 -31 -69q-16 -26 -51 -70q-24 -30 -70 -76q-28 -28 -67 -57 q-37 -28 -80 -64h315l-22 -182h-611v152l-6 -11q28 25 74 62q47 37 135 114q66 58 86 74q34 28 62 62q23 29 36 61q13 33 13 68q0 40 -25 65t-69 25q-54 0 -84 -27q-31 -28 -46 -106z" />
<glyph unicode="&#xbe;" horiz-adv-x="1918" d="M106 862h193l4 -14q9 -78 45 -111q35 -32 96 -32q57 0 95 24q36 23 36 90q0 51 -36 74q-39 25 -95 25h-86v163h88q55 0 84 29t29 72q0 47 -27 71q-28 25 -88 25q-50 0 -86 -25q-35 -24 -47 -96l-192 27q21 114 98 188t234 74q159 0 233 -68t74 -172q0 -56 -31 -104 q-29 -45 -82 -80q63 -26 98 -80q33 -50 33 -111q0 -126 -76 -202t-251 -76q-91 0 -160 29q-64 27 -105 71q-38 41 -57 99q-18 56 -21 110zM526 -14l713 1415h277l-713 -1415h-277zM1130 154v129l400 530h188v-496h107l-21 -163h-86v-166h-194v166h-394zM1335 317h189v254z " />
<glyph unicode="&#xbf;" horiz-adv-x="1021" d="M8 -49q0 65 12 115q10 41 35 86q19 33 49 67q18 20 60 62l69 69q35 35 58 68q27 39 39 69q14 35 14 80v35h283v-47q0 -51 -17 -104q-13 -42 -43 -86q-26 -39 -61 -74q-11 -11 -34 -33t-36 -35l-49 -49q-27 -27 -43 -51q-21 -32 -29 -62q-10 -38 -10 -75q0 -77 47 -121 q46 -43 123 -43q104 0 160 47t80 166l264 -33l-2 -4q-16 -92 -49 -166q-37 -81 -94 -133q-58 -52 -150 -88q-85 -33 -211 -33q-221 0 -342 100q-123 102 -123 273zM344 739v326h283v-326h-283z" />
<glyph unicode="&#xc0;" horiz-adv-x="1429" d="M20 0l549 1462h291l549 -1462h-328l-116 338h-512l-117 -338h-316zM313 1878h332l262 -297h-268zM530 590h355l-178 524z" />
<glyph unicode="&#xc1;" horiz-adv-x="1429" d="M20 0l549 1462h291l549 -1462h-328l-116 338h-512l-117 -338h-316zM520 1581l262 297h332l-326 -297h-268zM530 590h355l-178 524z" />
<glyph unicode="&#xc2;" horiz-adv-x="1429" d="M20 0l549 1462h291l549 -1462h-328l-116 338h-512l-117 -338h-316zM319 1581l248 297h289l248 -297h-246l-147 148l-146 -148h-246zM530 590h355l-178 524z" />
<glyph unicode="&#xc3;" horiz-adv-x="1429" d="M20 0l549 1462h291l549 -1462h-328l-116 338h-512l-117 -338h-316zM303 1585q0 153 68 221t184 68q45 0 80 -14q25 -10 67 -31l62 -31q28 -14 59 -14q40 0 62 16t22 66h203q0 -153 -68 -221t-184 -68q-45 0 -80 14q-36 14 -67 33q-12 7 -34.5 19t-25.5 14q-25 14 -55 14 q-40 0 -61 -18q-23 -20 -23 -70h-203zM530 590h355l-178 524z" />
<glyph unicode="&#xc4;" horiz-adv-x="1429" d="M20 0l549 1462h291l549 -1462h-328l-116 338h-512l-117 -338h-316zM362 1602v264h275v-264h-275zM530 590h355l-178 524zM788 1602v264h275v-264h-275z" />
<glyph unicode="&#xc5;" horiz-adv-x="1429" d="M20 0l537 1432l-4 -5q-42 28 -66 78q-24 49 -24 119q0 63 18 109q16 42 54 75q36 31 79 45q53 17 95 17q47 0 94 -15q45 -14 80 -45q35 -30 55 -75q20 -44 20 -107q0 -68 -24 -117q-22 -46 -66 -75l541 -1436h-328l-116 338h-512l-117 -338h-316zM526 586h355l-179 524z M614 1624q0 -52 25 -74t68 -22v-2q94 0 94 96q0 53 -25 78q-24 24 -69 24q-44 0 -68 -24q-25 -25 -25 -76z" />
<glyph unicode="&#xc6;" horiz-adv-x="2154" d="M0 0l850 1462h1214v-260h-649v-319h610v-262h-610v-361h692l-30 -260h-957v438h-536l-242 -438h-342zM723 690h397v512h-114z" />
<glyph unicode="&#xc7;" horiz-adv-x="1460" d="M88 723q0 176 47 319q46 139 135 242q88 101 215 154t283 53q137 0 244 -35q104 -34 174 -98q69 -63 114 -158q42 -89 64 -207l-303 -39q-21 129 -86 203t-203 74q-175 0 -266 -131q-92 -133 -92 -375q0 -244 98 -375t262 -131q141 0 209 74q69 75 84 209h328 q-9 -114 -49 -207q-41 -96 -111 -166q-73 -73 -172 -115q-98 -42 -234 -51l-24 -69q56 -6 96 -25q39 -19 60 -43t30 -51q8 -24 8 -58q0 -95 -79 -135q-80 -41 -215 -41q-39 0 -64 2q-23 2 -88 13v143l-18 -2q55 -9 90 -12q23 -2 61 -2q52 0 74 16t22 43q0 28 -24 43 q-22 14 -92 14h-76l65 166q-134 15 -245 78q-109 62 -179 160q-67 94 -106 231q-37 130 -37 289z" />
<glyph unicode="&#xc8;" horiz-adv-x="1236" d="M150 0v1462h997v-260h-692v-319h651v-262h-651v-361h735l-31 -260h-1009zM281 1878h331l262 -297h-268z" />
<glyph unicode="&#xc9;" horiz-adv-x="1236" d="M150 0v1462h997v-260h-692v-319h651v-262h-651v-361h735l-31 -260h-1009zM446 1581l263 297h331l-325 -297h-269z" />
<glyph unicode="&#xca;" horiz-adv-x="1236" d="M150 0v1462h997v-260h-692v-319h651v-262h-651v-361h735l-31 -260h-1009zM258 1581l248 297h289l247 -297h-245l-148 148l-145 -148h-246z" />
<glyph unicode="&#xcb;" horiz-adv-x="1236" d="M150 0v1462h997v-260h-692v-319h651v-262h-651v-361h735l-31 -260h-1009zM301 1602v264h274v-264h-274zM727 1602v264h274v-264h-274z" />
<glyph unicode="&#xcc;" horiz-adv-x="604" d="M-84 1878h332l262 -297h-268zM150 0v1462h305v-1462h-305z" />
<glyph unicode="&#xcd;" horiz-adv-x="604" d="M102 1581l263 297h331l-325 -297h-269zM150 0v1462h305v-1462h-305z" />
<glyph unicode="&#xce;" horiz-adv-x="604" d="M-88 1581l248 297h289l247 -297h-245l-148 148l-145 -148h-246zM150 0v1462h305v-1462h-305z" />
<glyph unicode="&#xcf;" horiz-adv-x="604" d="M-45 1602v264h274v-264h-274zM150 0v1462h305v-1462h-305zM381 1602v264h274v-264h-274z" />
<glyph unicode="&#xd0;" horiz-adv-x="1546" d="M18 631v252h166v581h547q334 0 522 -182q189 -183 189 -541q0 -185 -51 -319q-54 -143 -150 -234q-99 -94 -240 -141q-143 -47 -319 -47h-496v629zM489 262h197l-4 -2q119 0 203 35t135 98q54 66 78 152t24 194q0 114 -20 195q-21 86 -68 145q-45 56 -121 92 q-70 33 -182 33h-242v-321h312v-252h-312v-369z" />
<glyph unicode="&#xd1;" horiz-adv-x="1472" d="M150 0v1462h274l602 -958v958h297v-1462h-272l-605 950v-950h-296zM319 1585q0 153 68 221t184 68q45 0 80 -14q30 -12 68 -31q10 -5 30.5 -15.5t30.5 -15.5q28 -14 60 -14q39 0 61 16q23 16 23 66h202q0 -154 -67 -221q-68 -68 -185 -68q-44 0 -79 14q-39 16 -68 33 q-5 3 -59 33q-25 14 -56 14q-40 0 -61 -18q-23 -20 -23 -70h-202z" />
<glyph unicode="&#xd2;" horiz-adv-x="1597" d="M96 731q0 180 49 320q48 136 142 241q91 101 221 154t291 53q163 0 293 -53q132 -54 219 -154q90 -103 135 -241q47 -143 47 -320q0 -183 -45 -319q-46 -139 -135 -242q-88 -102 -217 -154q-130 -53 -295 -53h-6q-163 0 -293 53q-132 54 -219 154q-89 103 -138 242 q-49 140 -49 319zM410 731q0 -244 94 -375t289 -131v-2q194 0 288 131q95 133 95 375t-95 375t-288 133q-195 0 -289 -131t-94 -375zM434 1876h332l262 -297h-268z" />
<glyph unicode="&#xd3;" horiz-adv-x="1597" d="M96 731q0 180 49 320q48 136 142 241q91 101 221 154t291 53q163 0 293 -53q132 -54 219 -154q90 -103 135 -241q47 -143 47 -320q0 -183 -45 -319q-46 -139 -135 -242q-88 -102 -217 -154q-130 -53 -295 -53h-6q-163 0 -293 53q-132 54 -219 154q-89 103 -138 242 q-49 140 -49 319zM410 731q0 -244 94 -375t289 -131v-2q194 0 288 131q95 133 95 375t-95 375t-288 133q-195 0 -289 -131t-94 -375zM578 1579l262 297h331l-325 -297h-268z" />
<glyph unicode="&#xd4;" horiz-adv-x="1597" d="M96 731q0 180 49 320q48 136 142 241q91 101 221 154t291 53q163 0 293 -53q132 -54 219 -154q90 -103 135 -241q47 -143 47 -320q0 -183 -45 -319q-46 -139 -135 -242q-88 -102 -217 -154q-130 -53 -295 -53h-6q-163 0 -293 53q-132 54 -219 154q-89 103 -138 242 q-49 140 -49 319zM399 1579l248 297h289l248 -297h-246l-147 147l-146 -147h-246zM410 731q0 -244 94 -375t289 -131v-2q194 0 288 131q95 133 95 375t-95 375t-288 133q-195 0 -289 -131t-94 -375z" />
<glyph unicode="&#xd5;" horiz-adv-x="1597" d="M96 731q0 180 49 320q48 136 142 241q91 101 221 154t291 53q163 0 293 -53q132 -54 219 -154q90 -103 135 -241q47 -143 47 -320q0 -183 -45 -319q-46 -139 -135 -242q-88 -102 -217 -154q-130 -53 -295 -53h-6q-163 0 -293 53q-132 54 -219 154q-89 103 -138 242 q-49 140 -49 319zM383 1583q0 153 68 221t184 68q45 0 80 -14q25 -10 67 -31l62 -31q28 -14 59 -14q40 0 62 16t22 66h203q0 -154 -68 -222q-67 -67 -184 -67q-45 0 -80 14q-36 14 -67 33q-12 7 -34.5 19t-25.5 14q-25 14 -55 14q-41 0 -62 -18q-22 -19 -22 -70h-203z M410 731q0 -244 94 -375t289 -131v-2q194 0 288 131q95 133 95 375t-95 375t-288 133q-195 0 -289 -131t-94 -375z" />
<glyph unicode="&#xd6;" horiz-adv-x="1597" d="M96 731q0 180 49 320q48 136 142 241q91 101 221 154t291 53q163 0 293 -53q132 -54 219 -154q90 -103 135 -241q47 -143 47 -320q0 -183 -45 -319q-46 -139 -135 -242q-88 -102 -217 -154q-130 -53 -295 -53h-6q-163 0 -293 53q-132 54 -219 154q-89 103 -138 242 q-49 140 -49 319zM410 731q0 -244 94 -375t289 -131v-2q194 0 288 131q95 133 95 375t-95 375t-288 133q-195 0 -289 -131t-94 -375zM442 1599v265h275v-265h-275zM868 1599v265h275v-265h-275z" />
<glyph unicode="&#xd7;" d="M145 410l285 286l-285 289l174 174l287 -287l287 287l174 -174l-285 -289l285 -286l-174 -174l-287 286l-287 -286z" />
<glyph unicode="&#xd8;" horiz-adv-x="1597" d="M96 729q0 180 49 320q48 136 142 241q91 101 221 154t291 53q193 0 336 -76l104 158l137 -90l-106 -160q107 -101 166 -252q57 -146 57 -348q0 -183 -45 -319q-46 -139 -135 -242q-88 -102 -217 -154q-130 -53 -295 -53q-106 0 -201 25q-97 25 -170 67l-115 -172l-137 90 l121 185l-8 -4q-98 106 -146 245q-49 143 -49 332zM408 727q0 -194 57 -311l510 772q-80 45 -184 45q-195 0 -289 -131t-94 -375zM573 283q86 -62 215 -62q195 0 289 131t94 375q0 220 -75 344l-521 -788h-2z" />
<glyph unicode="&#xd9;" horiz-adv-x="1419" d="M121 598v864l307 2v-870q0 -186 66 -277q66 -90 219 -90t219 90q65 89 65 277v870h306v-870q0 -164 -41 -285q-40 -119 -117 -196q-75 -75 -187 -113q-110 -37 -247 -37q-138 0 -248 37q-109 37 -187 115q-75 75 -116 196q-39 116 -39 287zM332 1880h332l262 -297h-269z " />
<glyph unicode="&#xda;" horiz-adv-x="1419" d="M121 598v864l307 2v-870q0 -186 66 -277q66 -90 219 -90t219 90q65 89 65 277v870h306v-870q0 -164 -41 -285q-40 -119 -117 -196q-75 -75 -187 -113q-110 -37 -247 -37q-138 0 -248 37q-109 37 -187 115q-75 75 -116 196q-39 116 -39 287zM518 1583l262 297h332 l-326 -297h-268z" />
<glyph unicode="&#xdb;" horiz-adv-x="1419" d="M121 598v864l307 2v-870q0 -186 66 -277q66 -90 219 -90t219 90q65 89 65 277v870h306v-870q0 -164 -41 -285q-40 -119 -117 -196q-75 -75 -187 -113q-110 -37 -247 -37q-138 0 -248 37q-109 37 -187 115q-75 75 -116 196q-39 116 -39 287zM317 1583l248 297h289 l248 -297h-246l-147 148l-146 -148h-246z" />
<glyph unicode="&#xdc;" horiz-adv-x="1419" d="M121 598v864l307 2v-870q0 -186 66 -277q66 -90 219 -90t219 90q65 89 65 277v870h306v-870q0 -164 -41 -285q-40 -119 -117 -196q-75 -75 -187 -113q-110 -37 -247 -37q-138 0 -248 37q-109 37 -187 115q-75 75 -116 196q-39 116 -39 287zM360 1604v264h275v-264h-275z M786 1604v264h275v-264h-275z" />
<glyph unicode="&#xdd;" horiz-adv-x="1345" d="M20 1462h340l316 -592l325 592h324l-494 -866v-596h-305v596zM487 1581l263 297h331l-325 -297h-269z" />
<glyph unicode="&#xde;" horiz-adv-x="1310" d="M150 0v1462l299 -4v-252h221q168 0 278 -37t174 -98q66 -63 90 -145q25 -86 25 -172q0 -96 -25 -185q-23 -83 -90 -153q-63 -66 -172 -107q-104 -39 -270 -39h-229v-270h-301zM449 520h219l-6 -6q77 0 133 16q53 15 84 43t43 72q12 43 12 92q0 51 -12 92q-12 40 -43 68 q-32 29 -82 43q-49 14 -131 14h-217v-434z" />
<glyph unicode="&#xdf;" horiz-adv-x="1236" d="M119 1028q0 107 35 191q34 83 96 141q64 61 147 90q88 31 195 31q211 0 338 -92t127 -279q0 -104 -39 -172q-41 -71 -125 -123q144 -44 207 -141q65 -100 65 -254q0 -86 -24 -166q-25 -82 -76 -139t-135 -95q-79 -36 -203 -36q-51 0 -106 6q-54 6 -113 24l41 211 q23 -7 67 -14q38 -6 66 -6q119 0 164 57q47 59 47 174q0 125 -72 172q-71 47 -219 47h-61v219h65q88 0 135 50t47 155q0 84 -43 133q-44 50 -141 50q-205 0 -205 -265v-997h-272v1026z" />
<glyph unicode="&#xe0;" horiz-adv-x="1148" d="M63 297q0 109 50 180q49 71 129 111q78 40 178 55q107 16 201 19l137 6v53q0 97 -56 135q-55 37 -129 37q-170 0 -194 -129l-262 24q27 171 147 244q121 74 320 74q121 0 209 -31q86 -30 139 -86q52 -55 76 -135t24 -178v-676h-270v135l2 2q-66 -72 -143 -117t-205 -45 q-67 0 -135 19q-66 18 -113 57q-49 40 -76 101q-29 66 -29 145zM231 1536h326l246 -317h-264zM350 307q0 -54 37 -84t102 -30q113 0 181 51q38 25 63 71q25 45 25 109v55l-127 -6q-91 -3 -146 -18q-54 -15 -86 -37q-30 -21 -39 -49q-10 -30 -10 -62z" />
<glyph unicode="&#xe1;" horiz-adv-x="1148" d="M63 297q0 109 50 180q49 71 129 111q78 40 178 55q107 16 201 19l137 6v53q0 97 -56 135q-55 37 -129 37q-170 0 -194 -129l-262 24q27 171 147 244q121 74 320 74q121 0 209 -31q86 -30 139 -86q52 -55 76 -135t24 -178v-676h-270v135l2 2q-66 -72 -143 -117t-205 -45 q-67 0 -135 19q-66 18 -113 57q-49 40 -76 101q-29 66 -29 145zM350 307q0 -54 37 -84t102 -30q113 0 181 51q38 25 63 71q25 45 25 109v55l-127 -6q-91 -3 -146 -18q-54 -15 -86 -37q-30 -21 -39 -49q-10 -30 -10 -62zM387 1219l246 317h325l-307 -317h-264z" />
<glyph unicode="&#xe2;" horiz-adv-x="1148" d="M63 297q0 109 50 180q49 71 129 111q78 40 178 55q107 16 201 19l137 6v53q0 97 -56 135q-55 37 -129 37q-170 0 -194 -129l-262 24q27 171 147 244q121 74 320 74q121 0 209 -31q86 -30 139 -86q52 -55 76 -135t24 -178v-676h-270v135l2 2q-66 -72 -143 -117t-205 -45 q-67 0 -135 19q-66 18 -113 57q-49 40 -76 101q-29 66 -29 145zM180 1219l246 317h289l246 -317h-246l-146 170l-143 -170h-246zM350 307q0 -54 37 -84t102 -30q113 0 181 51q38 25 63 71q25 45 25 109v55l-127 -6q-91 -3 -146 -18q-54 -15 -86 -37q-30 -21 -39 -49 q-10 -30 -10 -62z" />
<glyph unicode="&#xe3;" horiz-adv-x="1148" d="M63 297q0 109 50 180q49 71 129 111q78 40 178 55q107 16 201 19l137 6v53q0 97 -56 135q-55 37 -129 37q-170 0 -194 -129l-262 24q27 171 147 244q121 74 320 74q121 0 209 -31q86 -30 139 -86q52 -55 76 -135t24 -178v-676h-270v135l2 2q-66 -72 -143 -117t-205 -45 q-67 0 -135 19q-66 18 -113 57q-49 40 -76 101q-29 66 -29 145zM182 1237q0 152 66 221q65 68 178 68q38 0 76 -15q35 -14 67 -30l62 -31q28 -14 59 -14q38 0 60 16t22 66h193q0 -153 -66 -222q-64 -67 -176 -67q-41 0 -76 14q-25 10 -69 33q-43 22 -62 33q-25 14 -55 14 q-41 0 -62 -18q-22 -19 -22 -70h-193zM350 307q0 -54 37 -84t102 -30q113 0 181 51q38 25 63 71q25 45 25 109v55l-127 -6q-91 -3 -146 -18q-54 -15 -86 -37q-30 -21 -39 -49q-10 -30 -10 -62z" />
<glyph unicode="&#xe4;" horiz-adv-x="1148" d="M63 297q0 109 50 180q49 71 129 111q78 40 178 55q107 16 201 19l137 6v53q0 97 -56 135q-55 37 -129 37q-170 0 -194 -129l-262 24q27 171 147 244q121 74 320 74q121 0 209 -31q86 -30 139 -86q52 -55 76 -135t24 -178v-676h-270v135l2 2q-66 -72 -143 -117t-205 -45 q-67 0 -135 19q-66 18 -113 57q-49 40 -76 101q-29 66 -29 145zM236 1247v256h266v-256h-266zM350 307q0 -54 37 -84t102 -30q113 0 181 51q38 25 63 71q25 45 25 109v55l-127 -6q-91 -3 -146 -18q-54 -15 -86 -37q-30 -21 -39 -49q-10 -30 -10 -62zM649 1247v256h266v-256 h-266z" />
<glyph unicode="&#xe5;" horiz-adv-x="1148" d="M63 297q0 109 50 180q49 71 129 111q78 40 178 55q107 16 201 19l137 6v53q0 97 -56 135q-55 37 -129 37q-170 0 -194 -129l-262 24q27 171 147 244q121 74 320 74q121 0 209 -31q86 -30 139 -86q52 -55 76 -135t24 -178v-676h-270v135l2 2q-66 -72 -143 -117t-205 -45 q-67 0 -135 19q-66 18 -113 57q-49 40 -76 101q-29 66 -29 145zM336 1434q0 58 18 102t49 72t74 43q41 14 90 14t90 -14q38 -13 76 -43q34 -27 53 -72q19 -46 19 -100q0 -57 -19 -103q-18 -43 -51 -69q-38 -30 -76 -43q-43 -15 -90 -15t-90 15q-41 14 -73 43q-33 30 -50 71 q-18 43 -18 103zM350 307q0 -54 37 -84t102 -30q113 0 181 51q38 25 63 71q25 45 25 109v55l-127 -6q-91 -3 -146 -18q-54 -15 -86 -37q-30 -21 -39 -49q-10 -30 -10 -62zM481 1434q0 -45 25 -70t65 -25l-2 -2q41 0 66 25q24 24 24 72q0 50 -24 71q-26 23 -66 23 q-37 0 -63 -23q-25 -22 -25 -71z" />
<glyph unicode="&#xe6;" horiz-adv-x="1837" d="M57 289q0 110 49 180t127 111q75 39 177 55q100 15 196 18l137 6v54q0 50 -14 82q-15 34 -39 55q-25 22 -55 31q-27 8 -66 8q-164 0 -188 -129l-262 24l-2 -8q27 170 145 244t313 74q116 0 197 -37q83 -38 141 -131q74 95 160 133q84 37 182 37q241 0 365 -142 q123 -141 123 -381v-114h-729q3 -129 65 -203t181 -74q164 0 194 144h279q-27 -181 -142 -273t-331 -92q-125 0 -232 45q-110 46 -174 162q-60 -84 -156 -143q-94 -58 -252 -58q-83 0 -157 19q-73 19 -123 57q-55 42 -80 100q-29 66 -29 146zM342 299q0 -54 37 -84 q39 -31 98 -31q51 0 98 13q43 12 78 36q38 26 64 72q24 44 24 109v55l-133 -4q-85 -3 -141 -19q-53 -15 -80 -36t-37 -50q-8 -24 -8 -61zM1016 647h448q0 110 -53 172t-164 62q-109 0 -168 -68q-57 -66 -63 -166z" />
<glyph unicode="&#xe7;" horiz-adv-x="1165" d="M84 522q0 128 37 232q38 106 104 178q69 75 166 115q98 40 225 40q112 0 189 -26q80 -27 135 -76q56 -50 86 -117q33 -74 41 -149l-289 -39q-9 83 -47 133q-37 49 -127 49q-66 0 -108 -26q-44 -27 -68 -74q-27 -52 -35 -107q-10 -68 -10 -125q0 -61 10 -129 q8 -56 35 -108q24 -47 68 -74q42 -26 108 -26q87 0 133 49q47 50 56 141h290q-15 -181 -120 -295t-316 -123l-22 -65q50 -8 92 -25q35 -14 57 -39q23 -26 31 -51q8 -24 8 -55q0 -96 -76 -136t-205 -40q-38 0 -63 2q-36 3 -86 12v141l-4 -8q54 -9 86 -12q23 -2 61 -2 q90 0 90 57q0 28 -24 43q-22 14 -90 14h-74l64 164q-211 34 -310 182q-98 146 -98 375z" />
<glyph unicode="&#xe8;" horiz-adv-x="1206" d="M90 539q0 138 39 239q40 104 111 178q70 73 170 111q98 37 217 37q245 0 368 -141t123 -381v-115h-741q3 -129 65 -203t185 -74q170 0 200 144h279l2 4q-27 -181 -143 -272q-119 -93 -338 -93q-266 0 -402 148q-135 147 -135 418zM264 1538h326l246 -317h-265zM383 657 h461q0 110 -56 172t-167 62q-55 0 -101 -19q-43 -18 -74 -49q-30 -30 -45 -73q-15 -44 -18 -93z" />
<glyph unicode="&#xe9;" horiz-adv-x="1206" d="M90 539q0 138 39 239q40 104 111 178q70 73 170 111q98 37 217 37q245 0 368 -141t123 -381v-115h-741q3 -129 65 -203t185 -74q170 0 200 144h279l2 4q-27 -181 -143 -272q-119 -93 -338 -93q-266 0 -402 148q-135 147 -135 418zM383 657h461q0 110 -56 172t-167 62 q-55 0 -101 -19q-43 -18 -74 -49q-30 -30 -45 -73q-15 -44 -18 -93zM422 1221l246 317h325l-307 -317h-264z" />
<glyph unicode="&#xea;" horiz-adv-x="1206" d="M90 539q0 138 39 239q40 104 111 178q70 73 170 111q98 37 217 37q245 0 368 -141t123 -381v-115h-741q3 -129 65 -203t185 -74q170 0 200 144h279l2 4q-27 -181 -143 -272q-119 -93 -338 -93q-266 0 -402 148q-135 147 -135 418zM233 1221l246 317h289l246 -317h-246 l-145 170l-144 -170h-246zM383 657h461q0 110 -56 172t-167 62q-55 0 -101 -19q-43 -18 -74 -49q-30 -30 -45 -73q-15 -44 -18 -93z" />
<glyph unicode="&#xeb;" horiz-adv-x="1206" d="M90 539q0 138 39 239q40 104 111 178q70 73 170 111q98 37 217 37q245 0 368 -141t123 -381v-115h-741q3 -129 65 -203t185 -74q170 0 200 144h279l2 4q-27 -181 -143 -272q-119 -93 -338 -93q-266 0 -402 148q-135 147 -135 418zM285 1249v256h266v-256h-266zM383 657 h461q0 110 -56 172t-167 62q-55 0 -101 -19q-43 -18 -74 -49q-30 -30 -45 -73q-15 -44 -18 -93zM698 1249v256h267v-256h-267z" />
<glyph unicode="&#xec;" horiz-adv-x="544" d="M-117 1534h326l246 -317h-265zM129 0v1069h287v-1069h-287z" />
<glyph unicode="&#xed;" horiz-adv-x="544" d="M100 1217l246 317h326l-307 -317h-265zM129 0v1069h287v-1069h-287z" />
<glyph unicode="&#xee;" horiz-adv-x="544" d="M-119 1217l246 317h289l246 -317h-246l-146 169l-143 -169h-246zM129 0v1069h287v-1069h-287z" />
<glyph unicode="&#xef;" horiz-adv-x="544" d="M-68 1245v256h267v-256h-267zM129 0v1069h287v-1069h-287zM346 1245v256h266v-256h-266z" />
<glyph unicode="&#xf0;" horiz-adv-x="1261" d="M88 485q0 124 39 215q43 102 106 164q67 68 156 105q87 37 189 37q205 0 311 -142q-20 110 -84 205q-61 91 -191 150l-147 -148l-107 113l84 86q-80 18 -180 24l41 219q93 -9 170 -24q76 -14 152 -37l123 121l106 -113l-74 -74q190 -100 287 -290q98 -192 98 -516 q0 -153 -41 -271q-40 -116 -110 -192t-170 -117q-95 -39 -215 -39q-118 0 -221 35q-101 34 -172 102t-111 166q-39 95 -39 221zM381 483q0 -141 68 -215q67 -73 178 -73q105 0 174 75t69 209v15l4 -2q0 76 -18 129t-51 86q-39 43 -80 53q-47 12 -111 12q-97 0 -165 -74 t-68 -215z" />
<glyph unicode="&#xf1;" d="M127 0v1069l272 -2v-147q62 91 152 137q85 43 182 43q183 0 271 -94t88 -301v-707h-287v668q0 113 -43 153q-44 41 -115 41q-51 0 -94 -16q-35 -13 -74 -47q-30 -30 -47 -68q-18 -41 -18 -86v-643h-287zM207 1233q0 153 65 221t179 68q37 0 75 -15q40 -16 68 -30 q10 -5 30.5 -15.5t30.5 -15.5q28 -14 60 -14q37 0 59 16q23 16 23 65h192q0 -153 -65 -221q-64 -67 -176 -67q-41 0 -76 14q-29 12 -70 33q-26 14 -61 33q-25 14 -56 14q-39 0 -61 -19q-23 -20 -23 -69h-192z" />
<glyph unicode="&#xf2;" horiz-adv-x="1261" d="M86 532q0 134 37 238t108 178q69 72 172 113q98 39 224 39q129 0 227 -39q103 -41 172 -113q72 -75 109 -178q36 -101 36 -235q0 -137 -36 -238q-37 -103 -109 -178q-69 -72 -172 -113q-98 -39 -223 -39l-4 -4q-258 0 -400 148q-141 147 -141 421zM281 1528h325l246 -318 h-264zM383 530q0 -165 59 -251t185 -86l2 -3q122 0 184 89q61 88 61 251q0 165 -61 250q-62 86 -184 86q-123 0 -185 -86q-61 -85 -61 -250z" />
<glyph unicode="&#xf3;" horiz-adv-x="1261" d="M86 532q0 134 37 238t108 178q69 72 172 113q98 39 224 39q129 0 227 -39q103 -41 172 -113q72 -75 109 -178q36 -101 36 -235q0 -137 -36 -238q-37 -103 -109 -178q-69 -72 -172 -113q-98 -39 -223 -39l-4 -4q-258 0 -400 148q-141 147 -141 421zM383 530 q0 -165 59 -251t185 -86l2 -3q122 0 184 89q61 88 61 251q0 165 -61 250q-62 86 -184 86q-123 0 -185 -86q-61 -85 -61 -250zM424 1210l246 318h325l-307 -318h-264z" />
<glyph unicode="&#xf4;" horiz-adv-x="1261" d="M86 532q0 134 37 238t108 178q69 72 172 113q98 39 224 39q129 0 227 -39q103 -41 172 -113q72 -75 109 -178q36 -101 36 -235q0 -137 -36 -238q-37 -103 -109 -178q-69 -72 -172 -113q-98 -39 -223 -39l-4 -4q-258 0 -400 148q-141 147 -141 421zM238 1210l245 318h289 l246 -318h-246l-145 170l-144 -170h-245zM383 530q0 -165 59 -251t185 -86l2 -3q122 0 184 89q61 88 61 251q0 165 -61 250q-62 86 -184 86q-123 0 -185 -86q-61 -85 -61 -250z" />
<glyph unicode="&#xf5;" horiz-adv-x="1261" d="M86 532q0 134 37 238t108 178q69 72 172 113q98 39 224 39q129 0 227 -39q103 -41 172 -113q72 -75 109 -178q36 -101 36 -235q0 -137 -36 -238q-37 -103 -109 -178q-69 -72 -172 -113q-98 -39 -223 -39l-4 -4q-258 0 -400 148q-141 147 -141 421zM236 1229q0 153 65 221 t178 68q39 0 76 -15q40 -16 68 -30q10 -5 30.5 -15.5t30.5 -15.5q30 -15 59 -15q36 0 60 17q22 16 22 65h193q0 -152 -66 -221q-64 -67 -176 -67q-41 0 -76 14q-25 10 -69 33q-7 4 -29.5 15t-32.5 17q-27 15 -55 15q-39 0 -61 -19q-23 -20 -23 -69h-192zM383 530 q0 -165 59 -251t185 -86l2 -3q122 0 184 89q61 88 61 251q0 165 -61 250q-62 86 -184 86q-123 0 -185 -86q-61 -85 -61 -250z" />
<glyph unicode="&#xf6;" horiz-adv-x="1261" d="M86 532q0 134 37 238t108 178q69 72 172 113q98 39 224 39q129 0 227 -39q103 -41 172 -113q72 -75 109 -178q36 -101 36 -235q0 -137 -36 -238q-37 -103 -109 -178q-69 -72 -172 -113q-98 -39 -223 -39l-4 -4q-258 0 -400 148q-141 147 -141 421zM289 1239v256h266v-256 h-266zM383 530q0 -165 59 -251t185 -86l2 -3q122 0 184 89q61 88 61 251q0 165 -61 250q-62 86 -184 86q-123 0 -185 -86q-61 -85 -61 -250zM702 1239v256h267v-256h-267z" />
<glyph unicode="&#xf7;" d="M158 573v248h897v-248h-897zM475 170v276h258v-276h-258zM475 934v276h258v-276h-258z" />
<glyph unicode="&#xf8;" horiz-adv-x="1261" d="M90 530q0 134 37 238q37 103 109 178q69 72 172 113q98 39 223 39q141 0 252 -51l88 131l129 -88l-88 -129q75 -72 116 -181t41 -245q0 -137 -36 -238q-37 -103 -109 -178q-69 -72 -172 -113q-98 -39 -223 -39q-147 0 -258 51l-101 -149l-129 88l101 147v-6 q-71 71 -113 183q-39 104 -39 249zM383 528q0 -52 6 -98q6 -44 21 -82l333 492v-2q-45 26 -114 26q-123 0 -185 -86q-61 -85 -61 -250zM510 217q46 -27 117 -27q122 0 184 89q61 88 61 251q0 52 -6 99t-18 84l-336 -496h-2z" />
<glyph unicode="&#xf9;" horiz-adv-x="1202" d="M117 362v707l286 -2v-668q0 -112 41 -153q39 -39 111 -39q52 0 92 16q30 12 70 47q35 27 53 68q18 40 18 86v643h287v-1069h-278v147q-63 -92 -148 -137q-82 -43 -178 -43q-181 0 -268 96q-86 95 -86 301zM254 1532h326l245 -318h-264z" />
<glyph unicode="&#xfa;" horiz-adv-x="1202" d="M117 362v707l286 -2v-668q0 -112 41 -153q39 -39 111 -39q52 0 92 16q30 12 70 47q35 27 53 68q18 40 18 86v643h287v-1069h-278v147q-63 -92 -148 -137q-82 -43 -178 -43q-181 0 -268 96q-86 95 -86 301zM391 1214l246 318h326l-308 -318h-264z" />
<glyph unicode="&#xfb;" horiz-adv-x="1202" d="M117 362v707l286 -2v-668q0 -112 41 -153q39 -39 111 -39q52 0 92 16q30 12 70 47q35 27 53 68q18 40 18 86v643h287v-1069h-278v147q-63 -92 -148 -137q-82 -43 -178 -43q-181 0 -268 96q-86 95 -86 301zM209 1214l246 318h288l246 -318h-246l-145 170l-143 -170h-246z " />
<glyph unicode="&#xfc;" horiz-adv-x="1202" d="M117 362v707l286 -2v-668q0 -112 41 -153q39 -39 111 -39q52 0 92 16q30 12 70 47q35 27 53 68q18 40 18 86v643h287v-1069h-278v147q-63 -92 -148 -137q-82 -43 -178 -43q-181 0 -268 96q-86 95 -86 301zM260 1243v256h266v-256h-266zM674 1243v256h266v-256h-266z" />
<glyph unicode="&#xfd;" horiz-adv-x="1161" d="M16 1069h332l250 -702l233 702h314l-432 -1100q-46 -111 -70 -159q-38 -74 -76 -115q-45 -48 -100 -68q-61 -22 -143 -22q-52 0 -105 6q-51 6 -110 24l47 213v-2q62 -16 120 -16q56 0 93 29q35 27 59 98l33 90zM377 1214l246 318h325l-307 -318h-264z" />
<glyph unicode="&#xfe;" horiz-adv-x="1275" d="M127 -397v1859l287 -4v-522q58 82 145 123t184 41q222 0 334 -152q111 -150 111 -416q0 -122 -31 -231q-30 -103 -92 -178q-63 -75 -147 -115q-87 -41 -195 -41q-75 0 -160 29q-75 26 -149 115v-508h-287zM410 516q0 -104 18 -166q18 -61 57 -100q40 -37 84 -49 q47 -13 86 -13q44 0 90 19q44 18 74 59q32 43 49 105q19 68 19 153q0 92 -19 160q-17 61 -49 104q-29 39 -74 58q-43 18 -88 18q-54 0 -92 -14q-37 -14 -76 -45q-42 -42 -59 -98q-18 -59 -18 -152v-33z" />
<glyph unicode="&#xff;" horiz-adv-x="1161" d="M16 1069h332l250 -702l233 702h314l-432 -1100q-46 -111 -70 -159q-38 -74 -76 -115q-45 -48 -100 -68q-61 -22 -143 -22q-52 0 -105 6q-51 6 -110 24l47 213v-2q62 -16 120 -16q56 0 93 29q35 27 59 98l33 90zM242 1243v256h266v-256h-266zM655 1243v256h267v-256h-267z " />
<glyph unicode="&#x152;" horiz-adv-x="2174" d="M102 729q0 178 50 320q48 138 135 241q84 100 207 154q121 53 264 53q139 0 225 -45q92 -48 158 -129v139h944v-260h-649v-319h608v-262h-608v-361h692l-31 -260h-956v135l2 -2q-27 -37 -64 -67q-48 -39 -82 -56q-50 -26 -104 -37q-59 -12 -131 -12q-146 0 -270 53 t-209 154q-88 105 -133 242q-48 146 -48 319zM422 731q0 -242 92 -375q91 -131 268 -131q188 0 271 123q90 134 90 354v50v2q0 219 -90 356q-83 127 -271 127q-177 0 -268 -131q-92 -133 -92 -375z" />
<glyph unicode="&#x153;" horiz-adv-x="1966" d="M90 532q0 134 37 238q37 103 109 178q69 72 170 113q95 39 219 39q141 0 227 -51q92 -54 154 -156q72 107 161 158q92 53 226 53q239 0 362 -141t123 -381v-115h-729q3 -129 65 -203t181 -74q77 0 127 35t65 109h279l-2 -8q-27 -181 -142 -273t-331 -92q-144 0 -236 53 t-156 154q-67 -101 -153 -154q-83 -51 -219 -51q-254 0 -396 148q-141 147 -141 421zM385 526q0 -166 59 -252t179 -86q117 0 176 86q61 89 61 250v4l2 -2q0 167 -57 250q-59 86 -180 86q-117 0 -179 -86q-61 -85 -61 -250zM1153 643h449q0 110 -56 172t-162 62 q-108 0 -167 -68q-58 -67 -64 -166z" />
<glyph unicode="&#x178;" horiz-adv-x="1345" d="M20 1462h340l316 -592l325 592h324l-494 -866v-596h-305v596zM322 1602v264h274v-264h-274zM748 1602v264h274v-264h-274z" />
<glyph unicode="&#x2c6;" horiz-adv-x="847" d="M33 1217l246 317h288l246 -317h-246l-145 169l-143 -169h-246z" />
<glyph unicode="&#x2dc;" horiz-adv-x="847" d="M31 1235q0 153 65 221t178 68q38 0 76 -15q40 -16 68 -30q10 -5 30.5 -15.5t30.5 -15.5q28 -14 60 -14q37 0 59 16q23 16 23 66h192q0 -154 -65 -222q-64 -67 -177 -67q-40 0 -75 14q-29 12 -70 33q-26 14 -61 33q-25 14 -56 14q-40 0 -61 -18q-23 -20 -23 -70h-192z" />
<glyph unicode="&#x2000;" horiz-adv-x="940" />
<glyph unicode="&#x2001;" horiz-adv-x="1880" />
<glyph unicode="&#x2002;" horiz-adv-x="940" />
<glyph unicode="&#x2003;" horiz-adv-x="1880" />
<glyph unicode="&#x2004;" horiz-adv-x="626" />
<glyph unicode="&#x2005;" horiz-adv-x="470" />
<glyph unicode="&#x2006;" horiz-adv-x="313" />
<glyph unicode="&#x2007;" horiz-adv-x="313" />
<glyph unicode="&#x2008;" horiz-adv-x="235" />
<glyph unicode="&#x2009;" horiz-adv-x="376" />
<glyph unicode="&#x200a;" horiz-adv-x="104" />
<glyph unicode="&#x2010;" horiz-adv-x="796" d="M92 471v283h613v-283h-613z" />
<glyph unicode="&#x2011;" horiz-adv-x="796" d="M92 471v283h613v-283h-613z" />
<glyph unicode="&#x2012;" horiz-adv-x="796" d="M92 471v283h613v-283h-613z" />
<glyph unicode="&#x2013;" horiz-adv-x="1024" d="M0 477v271h1024v-271h-1024z" />
<glyph unicode="&#x2014;" horiz-adv-x="2048" d="M0 477v271h2048v-271h-2048z" />
<glyph unicode="&#x2018;" horiz-adv-x="493" d="M86 942l127 520h219l-65 -520h-281z" />
<glyph unicode="&#x2019;" horiz-adv-x="493" d="M61 942l68 520h279l-127 -520h-220z" />
<glyph unicode="&#x201a;" horiz-adv-x="493" d="M72 -193l67 523h279l-127 -523h-219z" />
<glyph unicode="&#x201c;" horiz-adv-x="856" d="M86 942l127 520h203l-66 -520h-264zM465 942l127 520h203l-66 -520h-264z" />
<glyph unicode="&#x201d;" horiz-adv-x="856" d="M61 942l68 520h262l-127 -520h-203zM440 942l66 520h264l-127 -520h-203z" />
<glyph unicode="&#x201e;" horiz-adv-x="856" d="M72 -195l67 523h262l-127 -523h-202zM451 -195l65 523h264l-127 -523h-202z" />
<glyph unicode="&#x2022;" horiz-adv-x="819" d="M100 743q0 65 25 123q24 56 65 97q39 39 97 61q61 23 123 23q59 0 120 -23q58 -22 97 -61t61 -97q23 -61 23 -123q0 -64 -23 -125q-21 -56 -61 -96q-39 -39 -97 -61q-61 -23 -120 -23q-62 0 -123 23q-58 22 -97 61q-38 38 -63 96t-25 127z" />
<glyph unicode="&#x2026;" horiz-adv-x="1996" d="M106 0v330h293v-330h-293zM852 0v330h293v-330h-293zM1599 0v330h293v-330h-293z" />
<glyph unicode="&#x202f;" horiz-adv-x="376" />
<glyph unicode="&#x2039;" horiz-adv-x="669" d="M72 528l262 459h295l-238 -457l238 -469h-299z" />
<glyph unicode="&#x203a;" horiz-adv-x="669" d="M41 61l238 459l-238 467h301l256 -465l-260 -461h-297z" />
<glyph unicode="&#x205f;" horiz-adv-x="470" />
<glyph unicode="&#x20ac;" d="M16 760l29 186h125q18 104 59 197t105 160q65 68 155 108q93 41 213 41q223 0 330 -104q108 -105 135 -310l-256 -41q-21 112 -67 158q-47 47 -148 47q-96 0 -153 -72q-57 -73 -78 -182h328l-29 -186h-322v-125h308l-31 -186h-254q20 -105 78 -175q55 -67 151 -67 q111 0 164 53q54 54 66 164h268q-15 -230 -137 -346q-123 -117 -365 -117q-115 0 -205 35q-88 34 -149 98q-57 60 -100 154q-40 87 -58 203h-149l28 186l93 -4v125h-134z" />
<glyph unicode="&#x2122;" horiz-adv-x="1886" d="M41 1286v176h702v-176h-254v-643h-198v643h-250zM840 643v819h239l219 -594l222 594h235v-819h-182v516l-193 -516h-168l-192 514v-514h-180z" />
<glyph unicode="&#x25fc;" horiz-adv-x="1064" d="M0 0v1065h1065v-1065h-1065z" />
<glyph unicode="&#xfb01;" horiz-adv-x="1320" d="M29 842v223h168v35q0 97 28 170q26 67 78 116q50 47 117 68q74 23 147 23q44 0 109 -7q57 -6 115 -24l-39 -209q-69 16 -123 16q-55 0 -101 -30q-45 -29 -45 -113v-41h248v-223h-248v-846h-286v846zM901 1200v258h295v-258h-295zM905 -4v1069h287v-1069h-287z" />
<glyph unicode="&#xfb02;" horiz-adv-x="1320" d="M29 842v223h168v35q0 97 28 170q26 67 78 116q50 47 117 68q74 23 147 23q44 0 109 -7q57 -6 115 -24l-39 -209q-69 16 -123 16q-55 0 -101 -30q-45 -29 -45 -113v-41h248v-223h-248v-846h-286v846zM905 -4v1462h287v-1462h-287z" />
<glyph unicode="&#xfb03;" horiz-adv-x="2095" d="M29 842v223h168v35q0 97 28 170q26 67 78 116q50 47 117 68q74 23 147 23q44 0 109 -7q57 -6 115 -24l-39 -209q-69 16 -123 16q-55 0 -101 -30q-45 -29 -45 -113v-41h248v-223h-248v-846h-286v846zM805 838v223h168v35q0 97 28 170q26 67 78 116q50 47 117 68 q74 23 147 23q44 0 109 -7q57 -6 115 -24l-39 -209q-69 16 -123 16q-53 0 -100 -30q-45 -29 -45 -113v-41h247v-223h-247v-846h-287v846zM1675 1196v258h295v-258h-295zM1679 -8v1069h287v-1069h-287z" />
<glyph unicode="&#xfb04;" horiz-adv-x="2095" d="M29 842v223h168v35q0 97 28 170q26 67 78 116q50 47 117 68q74 23 147 23q44 0 109 -7q57 -6 115 -24l-39 -209q-69 16 -123 16q-55 0 -101 -30q-45 -29 -45 -113v-41h248v-223h-248v-846h-286v846zM805 838v223h168v35q0 97 28 170q26 67 78 116q50 47 117 68 q74 23 147 23q44 0 109 -7q57 -6 115 -24l-39 -209q-69 16 -123 16q-53 0 -100 -30q-45 -29 -45 -113v-41h247v-223h-247v-846h-287v846zM1679 -8v1462h287v-1462h-287z" />
</font>
</defs>
</svg>
